<svg width="175" height="361" viewBox="0 0 175 361" fill="none" xmlns="http://www.w3.org/2000/svg">
<path d="M105.75 0V0.173645H104.534V0.405172H103.898V0.636699H103.493V0.810345H103.087V1.04187L102.914 1.21552H102.682V1.44704H102.277V1.62069H102.046V1.85222H101.872V2.08374H101.64L101.467 2.25739V2.48892H101.062V2.66256H100.83V2.89409H100.598L100.425 3.06773V3.29926H100.02V3.4729H99.7881V3.70443H99.6145V3.93596H99.2093V4.1096H98.9778V4.34113H98.7463L98.5726 4.51478V4.7463H98.3411L98.1675 4.91995V5.15148H97.9359V5.383L97.7623 5.55665H97.5308V5.78818H97.2992L97.1256 5.96182V6.36699H96.8941V6.59852H96.7204V7.00369H96.4889V7.23522H96.3152V7.64039H96.0837V8.04556L95.9101 8.21921H95.6785V8.68226H95.447V9.08743H95.2734V9.49261H95.0418V9.89778H94.8682V10.303H94.6367V10.7081H94.463V10.9397H94.2315V11.3448H94L93.8263 11.5185V11.75H93.5948L93.4212 11.9236V12.1552H93.1896V12.3867H93.016V12.7919H92.7845L92.6108 12.9655V13.197H92.3793V13.3707H92.1478V13.8337L91.9741 14.0074H91.7426V14.4126H91.5689V14.6441H91.3374L91.1638 14.8177V15.2229H90.9322V15.4544H90.7007V15.686L90.5271 15.8596H90.2955V16.0911L90.1219 16.2648H89.8904V16.4963L89.7167 16.6699H89.4852V16.9015H89.3115V17.3066H89.08V17.5382H88.8485L88.6749 17.7118V17.9433H88.4433L88.2697 18.117V18.5222H88.0381V18.9852H87.8645V19.3904H87.633V19.7956H87.4015V20.2007H87.2278V20.8374H86.9963L86.8226 21.0111V21.4162H86.5911V21.6478H86.4175V22.0529H86.1859V22.2845L86.0123 22.4581H85.7808V22.6896H85.5492L85.3756 22.8633V23.2685H85.1441V23.5H84.9704V23.9052H84.7389V24.3103H84.5652V24.7155H84.3337V25.1207H84.1601V25.5837H83.9285V26.1626H83.697V26.5677H83.5234V26.9729H83.2918V27.2044H83.1182V27.6096H82.8867V27.8411H82.713V28.2463H82.4815V28.4199H82.25V28.883L82.0763 29.0566H81.8448V29.6933H81.6712V30.2722H81.4396V31.1404H81.266V32.1823H81.0345V32.7611H80.8608V33.1662H80.6293V33.5714H80.3978V34.0345H80.2241V34.4396H79.9926V34.8448H79.8189V35.25H79.5874V35.6552H79.4138V36.0603H79.1822V36.4655H78.9507V36.697L78.7771 36.8707H78.5455V37.3337L78.3719 37.5074H78.1404V37.7389H77.7352L77.5616 37.9125V38.1441H77.33V38.3177H76.9249V38.5492H76.6933V38.7808H76.2882L76.1145 38.9544V39.1859H75.6515L75.4778 39.3596V39.5911H75.2463L75.0726 39.7648V39.9963H74.8411V40.4015H74.6675V40.633H74.4359V41.0382L74.2623 41.2118H74.0308V41.617H73.7992V41.8485H73.6256V42.2537H73.3941V42.4852L73.2204 42.6589H72.9889V42.8904L72.8152 43.064H72.5837V43.4692H72.3522V43.7007H72.1786V43.9322H71.947V44.3374H71.7734V44.7426H71.5418V45.1478H71.3682V45.7845H71.1367V48.447H71.3682V49.0837H71.5418V49.4889H71.7734L71.947 49.6625V49.8941H72.1786L72.3522 50.0677V50.2992H72.8152V50.5308H73.2204V50.7044H73.6256V50.9359H74.2623V51.1096H74.8411V51.3411H75.2463V51.5148H75.4778V51.7463H75.883V51.9199H76.1145V52.1515H76.5197V52.383L76.6933 52.5566H77.0985V52.7882H77.33V52.9618H77.7352V53.1933H77.9667V53.367H78.3719V53.5985H78.7771V53.83L78.9507 54.0037H79.4138V54.2352L79.5874 54.4088H79.9926V54.6404H80.2241V54.814H80.6293V55.0455H80.8608V55.2192H81.266V55.4507H81.6712V55.6822H82.0763V55.8559H82.713V56.0874H83.5234V56.2611H84.3337V56.4926H85.3756V56.6662H86.1859V56.8978H86.8226V57.1293H87.4015V57.3029H87.633V57.5345H88.0381V57.7081H88.4433V57.9396H88.6749L88.8485 58.1133V58.3448H89.3115L89.4852 58.5184V58.75H89.8904V58.9815H90.1219V59.1551H90.5271V59.3867H90.9322V59.5603H91.3374V59.7918H91.5689V59.9655H91.9741V60.197H92.3793V60.3707H92.7845V60.6022H93.1896V60.8337H94V61.0074H95.2734V61.2389H96.7204V61.4125H97.5308V61.6441H98.3411V61.8177H99.2093V62.0492H99.7881V62.2808H100.193V62.4544H100.598V62.6859H100.83V62.8596H101.235V63.0911H101.467L101.64 63.2648V63.4963H101.872V63.6699H102.277V63.9015H102.451V64.133H102.682V64.3066H102.914V64.5382L103.087 64.7118H103.319V64.9433H104.766V65.117H105.576V65.3485H105.981V65.58H106.387V65.7537H106.792V65.9852H107.197V66.1588H107.66V66.3904H108.065V66.564H108.644V66.7955H109.512V66.9692H114.432V66.7955H115.243V66.564H115.648V66.3904H116.111V66.1588L116.284 65.9852H116.69V65.7537H116.921L117.095 65.58V65.3485H117.326V65.117H117.558V64.7118L117.731 64.5382H117.963V64.133H118.137V63.9015H118.368V63.4963H118.542V63.0911H118.773V62.4544H118.947V62.0492H119.179V61.6441H119.41V61.2389H119.584V60.8337H119.815V60.3707L119.989 60.197H120.22V59.9655L120.394 59.7918H120.626V59.3867H120.799V59.1551H121.031V58.9815H121.262V58.75H121.436V58.5184H121.667L121.841 58.3448V58.1133H122.073L122.246 57.9396V57.7081H122.478V57.5345H122.709V57.1293H122.883V56.8978H123.114V56.4926H123.288V56.0874H123.52V55.8559H123.693V55.4507H123.925V55.0455H124.098V54.6404H124.33V54.4088H124.562V54.0037H124.735V53.5985H124.967V53.367H125.14V52.9618H125.372L125.546 52.7882V52.383H125.777V52.1515H126.009V51.9199H126.182V51.5148H126.414L126.587 51.3411V51.1096H126.819V50.7044L126.993 50.5308H127.224V50.2992H127.398V49.8941H127.629V49.6625H127.861L128.034 49.4889V49.0837H128.266V48.8522H128.44V48.447H128.671V48.0419H128.845V47.8103H129.076V47.4052H129.308V47H129.481V46.5948H129.713V46.3633H129.887V45.9581H130.118V45.5529H130.292V45.3214H130.523V44.9162L130.697 44.7426H130.929V44.3374H131.16V43.9322H131.334V43.4692H131.565V43.064H131.739V42.4852H131.97V42.08H132.144V41.617H132.376V41.2118H132.607V40.8066H132.781V40.4015H133.012V39.9963H133.186V39.7648H133.417V39.3596L133.591 39.1859H133.823V38.7808H133.996V38.5492H134.228V38.3177H134.459L134.633 38.1441V37.7389H134.864V37.5074L135.038 37.3337H135.27V37.1022H135.443V36.8707H135.675L135.848 36.697V36.4655H136.08V36.0603H136.312L136.485 35.8867V35.4815H136.717V35.0185H136.89V34.6133H137.122V34.2081H137.296V33.8029H137.527V33.3978H137.759V32.9926H137.932V32.5874H138.164V32.1823H138.337V31.7192H138.569V31.1404H138.743V30.5037H138.974V29.867H139.148V29.0566H139.379V28.6515H139.611V28.2463H139.784V27.8411H140.016V27.4359H140.19V26.9729H140.421L140.595 26.7992V26.3941H140.826V26.1626H141.058V25.7574H141.231V25.3522H141.463V24.7155H141.637V23.0948H141.463V22.6896H141.231V22.2845H141.058V22.0529H140.826V21.8214H140.595V21.6478H140.19V21.4162L140.016 21.2426H139.611V21.0111H139.379V20.8374H138.974V20.6059H138.743L138.569 20.4323V20.2007H138.337V19.9692L138.164 19.7956H137.932V19.564L137.759 19.3904H137.527V19.1589H137.296L137.122 18.9852V18.7537H136.89V18.5222L136.717 18.3485H136.485V18.117L136.312 17.9433H136.08V17.7118H135.848V17.5382H135.443V17.3066L135.27 17.133H135.038V16.9015H134.864V16.6699H134.633V16.4963H134.228V16.2648H133.996L133.823 16.0911V15.8596H133.417V15.686H133.186V15.4544H132.781V15.2229L132.607 15.0493H132.376V14.8177H132.144V14.4126L131.97 14.2389H131.739V14.0074H131.565V13.6022H131.334V13.3707L131.16 13.197H130.929V12.7919H130.697V12.5603L130.523 12.3867H130.292V12.1552H129.887V11.9236L129.713 11.75H129.481V11.5185H129.076V11.3448H128.671V11.1133H128.266V10.9397H127.861V10.7081H127.398V10.5345H126.819V10.303H126.414V10.0714H126.009V9.89778H125.777V9.66625H125.372V9.49261H124.967V9.26108H124.735L124.562 9.08743V8.85591H124.098L123.925 8.68226V8.45074H123.52V8.21921H123.114V8.04556H122.883V7.81404H122.478V7.64039H122.073V7.40886H121.841V7.23522H121.436V7.00369H121.262V6.77216H120.799V6.59852H120.394V6.36699L120.22 6.19335H119.815V5.96182H119.41V5.78818H118.947V5.55665L118.773 5.383H118.368V5.15148H118.137V4.91995H117.731L117.558 4.7463V4.51478H117.095L116.921 4.34113V4.1096H116.516V3.93596H116.111V3.70443H115.474V3.4729H114.664V3.29926H114.027V3.06773H113.39V2.89409H112.812V2.66256H112.348L112.175 2.48892V2.25739H111.943V2.08374H111.538V1.85222H111.364V1.62069H111.133L110.959 1.44704V1.21552H110.728V1.04187H110.496V0.810345H110.091L109.917 0.636699V0.405172H109.281V0.173645H108.065V0H105.75ZM149.046 26.5677V26.7992H148.467V26.9729H148.062V27.2044H147.83V27.4359L147.656 27.6096H147.425V28.0148H147.193V28.2463L147.02 28.4199H146.788V28.6515H146.383V28.883H145.978V29.0566H144.126V29.2882H143.489V29.4618H143.084V29.6933L142.91 29.867H142.679V30.0985H142.447V30.5037H142.273V30.7352H142.042V31.314H141.868V31.7192H141.637V32.1823H141.463V32.5874H141.231L141.058 32.7611V33.1662H140.826V33.5714H140.595V34.0345L140.421 34.2081H140.19V34.6133H140.016V35.0185H139.784V35.25H139.611V35.4815H139.379V35.8867H139.148L138.974 36.0603V36.2919H138.743V36.697H138.569V37.1022H138.337V37.3337H138.164V37.7389H137.932V38.1441H137.759V38.5492H137.527V38.7808H137.296V39.1859L137.122 39.3596H136.89V39.7648H136.717V40.1699H136.485V40.633H136.312V41.2118H136.08V41.617H135.848V42.08H135.675V42.6589H135.443V43.064H135.27V43.4692H135.038V43.9322L134.864 44.1059H134.633V44.5111H134.459V44.7426H134.228V45.1478H133.996V45.5529H133.823V45.9581H133.591V46.1896H133.417V46.5948H133.186L133.012 46.7685V47.2315H132.781L132.607 47.4052V47.6367H132.376V48.0419H132.144L131.97 48.2155V48.447H131.739L131.565 48.6207V48.8522H131.334V49.2574H131.16V49.4889H130.929V49.6625H130.697V50.0677H130.523V50.5308H130.292V50.9359L130.118 51.1096H129.887V51.5148H129.713V51.9199H129.481V52.1515H129.308V52.5566H129.076V52.9618H128.845V53.367H128.671V53.83H128.44V54.2352H128.266V54.814H128.034V55.2192H127.861V55.6822H127.629V56.0874H127.398V56.4926L127.224 56.6662H126.993V56.8978H126.819V57.1293H126.587L126.414 57.3029V57.5345H126.182L126.009 57.7081V58.1133H125.777V58.3448H125.546L125.372 58.5184V58.75H125.14V58.9815L124.967 59.1551H124.735V59.3867H124.562V59.7918H124.33V59.9655H124.098V60.3707H123.925V60.6022H123.693V61.0074H123.52V61.4125H123.288V62.0492H123.114V62.4544H122.883V63.0911H122.709V63.4963H122.478V63.9015H122.246V64.3066H122.073V64.5382H121.841V64.9433H121.667V65.3485H121.436V65.7537H121.262V66.3904H121.031V67.4322H120.799V68.6478H121.031V69.6896H121.262V70.2684H121.436V70.5H121.667V70.9051H121.841V71.1367H122.073L122.246 71.3103V71.5418H122.709V71.7155H123.114V71.947H123.693V72.1785H125.14V72.3522H126.587V72.5837H127.224V72.7574H127.629V72.9889H128.034V73.1625H128.266V73.3941H128.671L128.845 73.5677V73.7992H129.308V74.0308L129.481 74.2044H129.887V74.4359H130.118V74.6096H130.523V74.8411H130.929V75.0147H131.334V75.2463H131.565V75.4778H131.97V75.6515H132.376V75.883H132.607V76.0566H133.186V76.2881H133.591V76.4618H134.228V76.6933H134.864V76.867H135.443V77.0985H136.08V77.33H136.717V77.5037H137.122V77.7352H137.759L137.932 77.9088V78.1404H138.337V78.314H138.743V78.5455H138.974V78.7192H139.379V78.9507H139.784V79.1822H140.19V79.3559H140.595V79.5874H140.826V79.7611H141.231V79.9926H141.463V80.1662H141.868V80.3978H142.042V80.6293H142.447V80.8029H142.679V81.0344H143.084V81.2081H143.489V81.4396H143.894V81.6133H144.531V81.8448H145.167V82.0184H145.746V82.25H146.383V82.4815H147.02V82.6551H147.656V82.8867H148.062V83.0603H148.467V83.2918L148.64 83.4655H148.872V83.697H149.277V83.9285H149.509L149.682 84.1022V84.3337H149.914L150.087 84.5074V84.9125H150.319V85.1441H150.493V85.5492H150.724V86.5911H150.956V89.8904H150.724V91.1059H150.493V91.9162H150.319V92.7844H150.087V93.5948H149.914V94.2315H149.682V94.6367H149.509V95.0418H149.277V95.447H149.046V95.8522H148.872V96.4889H148.64V96.8941H148.467V98.3411H148.235V103.493H148.062V104.534H147.83V105.345H147.656V107.602H147.83V108.007H148.062V108.239L148.235 108.413H148.64V108.644H149.509V108.413H150.319V108.239H150.724V108.007H151.129V107.834H151.534V107.602H151.766V107.429H152.171V107.197H152.576V106.965H152.808V106.792H153.213V106.56L153.387 106.387H153.618V106.155L153.792 105.981H154.197V105.75H154.429V105.576H154.66V105.345H154.834V105.113H155.065L155.239 104.94V104.708H155.47L155.644 104.534V104.303H155.876V104.129H156.107V103.898H156.281V103.666H156.512L156.686 103.493V103.261H156.917L157.091 103.087V102.856H157.323L157.496 102.682V102.451H157.728V102.277H157.959V102.046H158.133V101.814H158.364L158.538 101.64V101.409H158.77L158.943 101.235V101.004H159.175V100.83H159.406V100.598H159.812V100.367L159.985 100.193H160.39V99.9618H160.622V99.7881H161.027V99.5566H161.432V99.383H161.664V99.1514H162.069L162.243 98.9778V98.7463H162.706V98.5147L162.879 98.3411H163.111V98.1096L163.284 97.9359H163.516V97.7044H163.69V97.2992H163.921V97.0677H164.095V96.6625H164.326V96.4889H164.558V96.0837H164.731V95.6785H164.963V95.447H165.137V95.0418H165.368V94.8103H165.542V94.4051H165.773V94.2315H166.005V94H166.179V93.5948H166.41V93.3633L166.584 93.1896H166.815V92.7844H166.989V92.5529H167.22V92.1477H167.394V91.7426H167.626V91.511H167.857V91.1059L168.031 90.9322H168.262V90.7007L168.436 90.5271H168.667V90.2955H168.841V90.064H169.073L169.246 89.8904V89.6588H169.478V89.4852H169.709V89.2537L169.883 89.08H170.114V88.8485H170.288V88.4433H170.52V88.2118L170.693 88.0381H170.925V87.8066H171.156L171.33 87.633V87.2278H171.562V86.9963H171.735V86.5911H171.967V86.1859H172.14V85.7808H172.372V85.1441H172.546V84.5074H172.777V83.9285H173.009V83.4655L173.182 83.2918H173.414V82.8867H173.587V82.6551H173.819L173.993 82.4815V82.25H174.224V82.0184H174.456L174.629 81.8448V81.6133H174.861L175.034 81.4396V81.2081H175.266L175.44 81.0344V80.8029H175.671L175.845 80.6293V80.3978H176.076V80.1662H176.308V79.7611L176.481 79.5874H176.713V79.3559H176.887V78.9507H177.118V78.7192H177.292V78.314H177.523V77.7352H177.755V77.33H177.929V76.6933H178.16V76.2881H178.334V75.883H178.565V75.4778H178.739V75.0147H178.97L179.144 74.8411V74.6096H179.376V74.4359H179.607V74.2044L179.781 74.0308H180.012V73.7992H180.186V73.5677H180.417L180.591 73.3941V72.9889H180.823V72.7574H181.054L181.228 72.5837V72.3522H181.459L181.633 72.1785V71.947H181.864V71.5418H182.038V71.3103H182.27V70.9051L182.443 70.7315H182.675V70.0948H182.906V69.6896H183.08V69.2845H183.312V68.6478H183.485V68.2426H183.717V67.8374H183.89V67.4322H184.122V67.2007H184.353V66.9692L184.527 66.7955H184.759V66.3904H184.932V66.1588H185.164L185.337 65.9852V65.7537H185.569L185.743 65.58V65.117H185.974V64.5382H186.206V62.2808H186.379V61.2389H186.611V60.8337H186.784V60.197H187.016V59.7918H187.19V59.3867H187.421V58.9815H187.595V58.3448H187.826V57.5345H188.058V56.6662H188.231V55.8559H188.463V55.2192H188.637V54.2352H188.868V53.1933H189.042V51.1096H188.868V50.7044H188.637V50.2992H188.463V50.0677H188.231V49.6625L188.058 49.4889H187.595V49.2574L187.421 49.0837H187.19V48.8522H187.016V48.6207H186.611V48.447H186.379V48.2155L186.206 48.0419H185.743V47.8103L185.569 47.6367H185.337V47.4052H184.932L184.759 47.2315V47H184.353V46.7685H183.89V46.5948H183.485V46.3633H183.08V46.1896H182.675V45.9581H182.443V45.7845H182.038V45.5529H181.864V45.3214H181.633V45.1478H181.228V44.9162L181.054 44.7426H180.823V44.5111H180.591L180.417 44.3374V44.1059H180.186L180.012 43.9322V43.7007H179.781V43.4692L179.607 43.2955H179.376V43.064H179.144L178.97 42.8904V42.6589H178.739L178.565 42.4852V42.2537H178.334L178.16 42.08V41.8485H177.929V41.617L177.755 41.4433H177.523V41.2118H177.292L177.118 41.0382V40.8066H176.887V40.633H176.481V40.4015H176.308V40.1699H176.076V39.9963H175.671V39.7648H175.44L175.266 39.5911V39.3596H174.861V39.1859H174.629V38.9544L174.456 38.7808H173.993V38.5492H173.819V38.3177H173.587L173.414 38.1441V37.9125H173.182L173.009 37.7389V37.5074H172.546L172.372 37.3337V37.1022H172.14V36.8707H171.735V36.697H171.33V36.4655H170.925V36.2919H170.52V36.0603H170.114V35.8867H169.709V35.6552H169.246V35.4815H168.841V35.25H168.436V35.0185H168.031V34.8448H167.626V34.6133H166.989V34.4396H166.179V34.2081H165.542V34.0345H164.963V33.8029H164.558V33.5714H164.095V33.3978H163.69V33.1662H163.284L163.111 32.9926V32.7611H162.706V32.5874H162.243V32.3559H161.837V32.1823H161.432V31.9507H161.027V31.7192H160.622V31.5456H160.217V31.314H159.985V31.1404H159.58V30.9089L159.406 30.7352H159.175V30.5037H158.77V30.2722H158.538V30.0985H158.133V29.867L157.959 29.6933H157.496V29.4618L157.323 29.2882H156.917V29.0566H156.281V28.883H155.876V28.6515H155.065V28.4199H154.197V28.2463H153.387V28.0148H152.981V27.8411H152.576V27.6096H152.171V27.4359H151.766V27.2044H151.361V26.9729H150.724V26.7992H149.914V26.5677H149.046ZM59.7919 50.0677V50.2992H59.213V50.5308H58.75V50.7044H58.3448V50.9359L58.1712 51.1096H57.766V51.3411H57.5345V51.5148H57.3029V51.7463H56.8978L56.7241 51.9199V52.1515H56.4926V52.383H56.0874L55.9138 52.5566V52.7882H55.4507L55.2771 52.9618V53.1933H55.0455V53.367H54.6404V53.5985H54.4667V53.83H54.2352V54.0037H54.0037V54.2352L53.83 54.4088H53.5985V54.6404L53.4249 54.814H53.1933V55.0455L53.0197 55.2192H52.7882V55.4507H52.6145V55.6822H52.383V55.8559H52.1515V56.2611H51.9778V56.4926H51.7463L51.5726 56.6662V57.1293H51.3411L51.1675 57.3029V57.7081H50.9359V57.9396L50.7623 58.1133H50.5308V58.3448H50.2992V58.75H50.1256V58.9815H49.8941L49.7204 59.1551V59.3867H49.4889L49.3153 59.5603V59.7918H49.0837V60.197H48.8522L48.6786 60.3707V60.8337H48.447V61.2389H48.2734V61.6441H48.0419V62.2808H47.8682V62.6859H47.6367V63.2648H47.463V63.4963H47.2315V63.9015H47V64.133L46.8263 64.3066H46.5948V64.5382L46.4212 64.7118H46.1896V64.9433L46.016 65.117H45.5529V65.3485H45.3793V65.58H45.1478L44.9741 65.7537V65.9852H44.7426L44.569 66.1588V66.3904H44.3374L44.1638 66.564V66.9692H43.9323V67.2007H43.7007V67.4322H43.5271V67.8374H43.2956L43.1219 68.0111V68.4162H42.8904V68.6478H42.7167V68.8793H42.4852V69.0529H42.2537V69.2845L42.08 69.4581H41.8485V69.8633H41.6749V70.0948H41.4433L41.2697 70.2684V70.5H41.0382V70.9051H40.8645V71.3103H40.633V71.7155H40.4015V72.1785H40.2278V72.7574H39.9963V73.3941H39.8226V73.7992H39.5911V74.2044H39.4175V74.6096H39.1859V75.0147H38.9544V75.2463H38.7808V75.4778H38.5492V75.883H38.3756V76.2881H38.1441V76.6933H37.9704V77.0985H37.7389V77.7352H37.5653V78.1404H37.3337V78.7192H37.1022V78.9507H36.9286V79.3559H36.697V79.5874L36.5234 79.7611H36.2919V79.9926L36.1182 80.1662H35.8867V80.3978H35.6552V80.6293H35.25L35.0763 80.8029V81.0344H34.8448L34.6712 81.2081V81.4396H34.4396L34.266 81.6133V82.0184H34.0345V82.25H33.8029V82.6551H33.6293V83.2918H33.3978V84.1022H33.2241V84.9125H32.9926V85.7808H32.819V86.1859H32.5874V86.5911L32.4138 86.7647H32.1823V86.9963H31.9507V87.4014H31.7771V87.633H31.5456L31.3719 87.8066V88.0381H31.1404L30.9667 88.2118V88.4433H30.7352V88.617H30.5037V88.8485H30.33V89.08H30.0985L29.9249 89.2537V89.4852H29.6933L29.5197 89.6588V89.8904H29.2882L29.1145 90.064V90.2955H28.883V90.5271H28.6515L28.4778 90.7007V91.1059H28.2463V91.3374H28.0727V91.7426H27.8411V92.1477H27.6675V92.5529H27.436V93.1896H27.2044V93.7684H27.0308V94.2315H26.7993V94.6367H26.6256V95.0418H26.3941L26.2204 95.2155V95.447H25.9889V95.6785L25.8153 95.8522H25.5837V96.0837H25.3522V96.2573H24.947V96.4889L24.7734 96.6625H24.5419V96.8941H24.1367V97.0677H23.9052V97.2992H23.7315V97.5307H23.5L23.3263 97.7044V97.9359H23.0948L22.9212 98.1096V98.3411H22.6896V98.7463H22.516V98.9778H22.2845V99.383H22.0529L21.8793 99.5566V99.9618H21.6478V100.193H21.4741V100.598H21.2426V100.83H21.069V101.235H20.8374V101.814H20.6059V102.277H20.4323V102.682H20.2007V103.261H20.0271V103.493H19.7956V103.898H19.6219V104.129H19.3904V104.534L19.2167 104.708H18.9852V104.94H18.7537L18.58 105.113V105.345H18.3485V105.75H18.1749V105.981H17.9433L17.7697 106.155V106.387H17.5382V106.792L17.3645 106.965H17.133V107.197H16.9015V107.429H16.7278V107.834H16.4963L16.3227 108.007V108.239H16.0911L15.9175 108.413V108.644H15.686V108.876H15.4544V109.281L15.2808 109.454H15.0493V109.86H14.8756V110.265H14.6441V110.728H14.4704V111.133H14.2389V111.538H14.0653V111.943H13.8337V112.348H13.6022V112.754H13.4286V113.159H13.197V113.796H13.0234V115.879H13.197V116.458H13.4286V118.542H13.197L13.0234 118.715V119.179H12.7919L12.6182 119.352V119.584H12.3867V119.757H12.1552V119.989L11.9815 120.163H11.75V120.394H11.5764V120.626H11.3448L11.1712 120.799V121.031H10.9397L10.766 121.204V121.436H10.5345V121.61H10.303V121.841L10.1293 122.015H9.89778V122.246H9.72413V122.478H9.49261L9.31896 122.651V122.883H9.08744V123.057H8.85591V123.288H8.68226V123.693H8.45074V123.925L8.27709 124.098H8.04556V124.33L7.87192 124.504H7.64039V124.909H7.46675V125.14H7.23522V125.546H7.00369V125.951H6.83005V126.587H6.59852V127.166H6.42487V127.803H6.19335V128.208H6.0197V128.845H5.78818V129.25H5.55665V129.481H5.383V130.06H5.15148V130.465H4.97783V130.929H4.7463V131.334L4.57266 131.507H4.34113V131.913H4.16749V132.376H3.93596V132.549H3.70443V132.781H3.53079V133.186H3.29926L3.12561 133.36V133.591H2.89409V133.996H2.72044V134.228H2.48892V134.401H2.25739V134.807H2.08374V135.038H1.85222V135.443H1.67857V135.675H1.44704L1.2734 135.848V136.254H1.04187V136.485L0.868226 136.659H0.636699V137.064H0.405172V137.527H0.231527V137.932H0V140.363H0.231527V141H0.405172V141.405H0.636699V141.81H0.868226V142.273L1.04187 142.447H1.2734V142.852H1.44704V143.084H1.67857V143.489L1.85222 143.663H2.08374V143.894H2.25739V144.299H2.48892V144.531H2.72044L2.89409 144.704V145.11H3.12561V145.341H3.29926V145.746H3.53079V145.978H3.70443V146.383H3.93596V146.557H4.16749V146.962H4.34113V147.193H4.57266V147.598H4.7463V147.83H4.97783L5.15148 148.004V148.235H5.383L5.55665 148.409V148.64H5.78818V148.814H6.0197V149.277L6.19335 149.451H6.42487V149.856H6.59852V150.261H6.83005V150.724H7.00369V151.129H7.23522V151.534H7.46675V151.94L7.64039 152.113H7.87192V152.345H8.04556V152.75H8.27709V152.981L8.45074 153.155H8.68226V153.387L8.85591 153.56H9.08744V154.023H9.31896L9.49261 154.197V154.602H9.72413V155.007H9.89778V155.239H10.1293V155.644H10.303V156.049H10.5345V156.454H10.766V156.86H10.9397V157.091H11.1712V157.496H11.3448V157.728H11.5764L11.75 157.901V158.307H11.9815V158.538L12.1552 158.712H12.3867V159.175H12.6182L12.7919 159.348V159.58H13.0234L13.197 159.754V160.159H13.4286V160.39H13.8337V160.564H14.0653V160.796H14.2389V161.027H14.6441V161.201H15.0493V161.432H15.686V161.606H16.4963V161.837H17.133V162.011H17.5382V162.243H17.9433V162.474H18.3485V162.648H18.7537V162.879H18.9852V163.053H19.2167V163.284L19.3904 163.458H19.6219V163.863H19.7956V164.326H20.0271V164.731H20.2007V166.352H20.4323V168.204H20.6059V168.841H20.8374V169.246H21.069V169.651H21.2426V170.057H21.4741V170.288L21.6478 170.462H21.8793V170.693H22.0529V170.925H22.2845V171.098H22.516V171.33L22.6896 171.504H22.9212V171.735H23.3263L23.5 171.909V172.14H23.9052V172.372H24.3682V172.546H24.947V172.777H25.5837V172.951H25.9889V173.182H26.3941V173.356H26.6256V173.587L26.7993 173.761H27.0308V173.993H27.2044V174.398H27.436V174.803H27.6675V175.208H27.8411V175.845H28.0727V176.655H28.2463V177.292H28.4778V177.697H28.6515V178.102H28.883V178.507H29.1145V178.739H29.2882V179.144H29.5197V179.376H29.6933V179.781H29.9249L30.0985 179.954V180.36H30.33V180.823H30.5037V181.401H30.7352V182.038H30.9667V182.675H31.1404V183.08H31.3719V183.485H31.5456V183.89H31.7771V184.122L31.9507 184.295H32.1823V184.701H32.4138V185.106H32.5874V185.337H32.819V185.743H32.9926V186.379H33.2241V186.958H33.3978V187.595H33.6293V188H33.8029V188.405H34.0345V188.81H34.266V189.042H34.4396V189.273H34.6712V189.678L34.8448 189.852H35.0763V190.084L35.25 190.257H35.4815V190.489H35.6552V190.72H35.8867V190.894H36.1182V191.126L36.2919 191.299H36.5234V191.704H36.697V191.936H36.9286V192.341H37.1022V192.573H37.3337V192.978H37.5653V193.383H37.7389V193.788H37.9704V194.193H38.1441V194.598H38.3756V194.83H38.5492V195.235H38.7808L38.9544 195.409V195.64H39.1859V196.045H39.4175V196.277L39.5911 196.451H39.8226V196.856H39.9963V197.261H40.2278V197.724H40.4015V198.129H40.633V198.534H40.8645V198.94H41.0382V199.576H41.2697V199.981H41.4433V200.387H41.6749V200.792H41.8485V201.023H42.08V201.428L42.2537 201.602H42.4852V201.834H42.7167V202.239H42.8904V202.47H43.1219V202.644H43.5271V202.876L43.7007 203.049H44.1638V203.281H44.569V203.454H44.9741V203.686H45.5529V203.86H46.016V204.091H46.4212V204.323H46.8263V204.496H47.463V204.728H47.8682V204.901H48.447V205.133H49.0837V205.307H51.1675V205.538H52.1515V205.77H52.6145L52.7882 205.943V206.175H53.0197L53.1933 206.348V208.027H53.0197V208.432H52.7882V208.837H52.6145V209.474H52.383V211.095H52.6145V211.5H52.7882V211.905H53.0197V212.31H53.1933V212.773H53.4249V213.352H53.5985V213.757H53.83V214.394H54.0037V215.031H54.2352V215.436H54.4667V215.841H54.6404V216.246H54.8719V216.651H55.0455V216.883H55.2771L55.4507 217.057V217.52H55.6822V217.693H55.9138V217.925H56.0874V218.33H56.3189L56.4926 218.504V218.909H56.7241V219.14H56.8978V219.545H57.1293V219.777H57.3029V220.182H57.5345V220.587H57.766V220.819H57.9396V221.398H58.1712V221.803H58.3448V222.208H58.5763V222.671L58.75 222.845H58.9815V223.25H59.213V223.481H59.3867V223.887H59.6182V224.118L59.7919 224.292H60.0234V224.523H60.197V224.928H60.4286L60.6022 225.102V225.507H60.8337V225.739H61.0653V225.97H61.2389V226.376H61.4704L61.6441 226.549V226.781H61.8756L62.0492 226.954V227.36H62.2808V227.591H62.5123V227.823L62.6859 227.996H62.9175V228.228L63.0911 228.401H63.3226V228.633L63.4963 228.807H63.7278V229.038H63.9015V229.27H64.133V229.443H64.3645V229.675L64.5382 229.848H64.7697V230.254H64.9433V230.485H65.1749L65.3485 230.659V231.122H65.58V231.527H65.8116V231.932H65.9852V232.337H66.2167V232.743H66.3904V232.974H66.6219V233.379L66.7955 233.553H67.0271V233.958H67.2007V234.19H67.4322V234.595H67.6638V234.826L67.8374 235H68.0689V235.405H68.2426V235.637H68.4741V236.042H68.6478V236.447H68.8793V236.852H69.0529V237.257H69.2845V237.72H69.516V238.126L69.6896 238.299H69.9212V238.704H70.0948V238.936H70.3263V239.167L70.5 239.341H70.7315V239.573H70.963L71.1367 239.746V239.978H71.3682L71.5418 240.151V240.383H71.7734V240.788H71.947V241.02H72.1786V241.425L72.3522 241.598H72.5837V242.004H72.8152V242.467L72.9889 242.64H73.2204V243.045H73.3941V243.451H73.6256V243.856H73.7992V244.319H74.0308V244.724H74.2623V245.534H74.4359V246.171H74.6675V246.75H74.8411V247.387H75.0726V247.792H75.2463V248.023H75.4778V248.428L75.6515 248.602H75.883V248.834H76.1145L76.2882 249.007V249.239H76.5197V249.47L76.6933 249.644H76.9249V250.049H77.0985V250.281H77.33V250.454H77.5616V250.686H77.7352V250.917H77.9667V251.323L78.1404 251.496H78.3719V251.901H78.5455V252.307H78.7771V252.77H78.9507V253.348H79.1822V253.754H79.4138V254.217H79.5874V254.622H79.8189V255.027H79.9926V255.432H80.2241L80.3978 255.606V256.069H80.6293V256.474H80.8608V256.879H81.0345V257.69H81.266V263.073H81.0345V263.651H80.8608V264.288H80.6293V264.693H80.3978V265.098H80.2241V265.504H79.9926V266.14H79.8189V266.951H79.5874V268.224H79.4138V269.266H79.1822V270.076H78.9507V271.118H78.7771V275.228H78.5455V276.27H78.3719V276.848H78.1404V277.254H77.9667V277.717H77.7352V278.295H77.5616V278.701H77.33V279.569H77.0985V286.167H76.9249V288.425H76.6933V289.467H76.5197V290.277H76.2882V291.898H76.1145V293.981H75.883V294.618H75.6515V295.197H75.4778V295.602H75.2463V296.065H75.0726V296.47H74.8411V297.049H74.6675V298.091H74.4359V308.394H74.2623V309.436H74.0308V310.478H73.7992V311.52H73.6256V313.14H73.3941V314.182H73.2204V314.587H72.9889V315.224H72.8152V315.629H72.5837V316.034H72.3522V316.671H72.1786V317.25H71.947V319.739H71.7734V321.996H71.5418V322.864H71.3682V323.848H71.1367V325.527H70.963V327.379H70.7315V328.19H70.5V328.595H70.3263V329H70.0948V329.637H69.9212V330.042H69.6896V330.678H69.516V331.489H69.2845V333.341H69.0529V334.383H68.8793V335.193H68.6478V336.235H68.4741V337.451H68.2426V338.087H68.0689V338.724H67.8374V339.129H67.6638V339.534H67.4322V340.171H67.2007V340.576H67.0271V341.387H66.7955V362.224H67.0271V362.861H67.2007V363.266H67.4322V363.671H67.6638L67.8374 363.845V364.076H68.0689L68.2426 364.25V364.481H68.6478V364.713H69.0529V364.887H69.516V365.118H70.3263V365.292H70.963V365.523H71.5418V365.697H71.947V365.928H72.3522V366.16H72.8152V366.334H73.2204V366.565L73.3941 366.739H73.7992V366.97H74.2623V367.144H74.6675V367.375H75.2463V367.549H76.6933V367.781H195.64V367.549H196.914V367.375H197.319V367.144H197.724V366.97H197.956V366.739L198.129 366.565H198.361V366.334H198.534V365.928H198.766V365.292H198.94V356.667H199.171V354.584H199.403V353.947H199.576V353.368H199.808V352.963H199.981V352.5H200.213V352.095H200.387V351.516H200.618V350.242H200.792V324.311H200.618V322.864H200.387V321.996H200.213V319.739H200.387V318.928H200.618V317.481H200.792V291.898H201.023V290.914H201.255V290.045H201.428V288.83H201.66V270.076H201.834V269.266H202.065V268.629H202.239V268.224H202.47V267.819H202.644V267.356H202.876V266.951H203.107V266.372H203.281V265.967H203.512V265.504H203.686V264.925H203.917V264.52H204.091V264.057H204.323V263.883H204.554V263.478H204.728V263.246H204.959L205.133 263.073V262.841H205.364L205.538 262.667V262.436H205.77V262.204H206.175V262.031H206.406V261.799L206.58 261.626H206.985V261.394H207.217L207.39 261.22V260.989H207.622V260.757H207.853V260.352L208.027 260.178H208.259V259.947L208.432 259.773H208.664V259.368H208.837V259.137H209.069V258.905L209.243 258.731H209.474V258.326H209.706V258.095L209.879 257.921H210.111V257.69L210.284 257.516H210.516V257.284H210.69V257.053H210.921V256.879H211.153V256.648L211.326 256.474H211.558V256.243L211.731 256.069H211.963V255.837H212.137V255.606H212.368V255.201L212.542 255.027H212.773V254.622H213.005V254.39H213.178V253.754H213.41V252.943H213.584V251.091H213.815V250.049H213.989V249.644H214.22V249.239H214.452V249.007L214.626 248.834H214.857V248.602L215.031 248.428H215.262V248.197L215.436 248.023H215.667V247.792L215.841 247.618H216.073V247.387H216.304V247.155L216.478 246.981H216.709V246.75L216.883 246.576H217.114V246.345L217.288 246.171H217.52V245.94H217.751V245.708L217.925 245.534H218.156V245.303L218.33 245.129H218.562V244.898L218.735 244.724H218.967V244.493L219.14 244.319H219.372V244.087H219.603V243.856L219.777 243.682H220.009V243.451L220.182 243.277H220.414V242.872H220.587V242.64H220.819L220.993 242.467V242.004H221.224V241.83H221.456V241.598H221.629V241.193H221.861L222.034 241.02V240.788H222.266V240.557H222.44V240.151H222.671V239.978H222.903V239.746L223.076 239.573H223.308V239.341L223.481 239.167H223.713V238.936H223.887V238.704H224.118L224.292 238.531V238.299H224.523V238.126H224.755V237.894L224.928 237.72H225.16V237.489H225.334V237.084H225.565V236.852H225.739V236.447H225.97V236.042H226.202V235.405H226.376V234.826H226.607V234.19H226.781V233.379H227.012V232.569H227.186V231.295H227.417V229.675H227.591V228.807H227.823V228.228H228.054V227.823H228.228V227.36H228.459L228.633 227.186V226.781H228.864V226.376H229.038V225.97H229.27V225.507H229.501V224.928H229.675V224.118H229.906V222.671H230.08V221.398H230.311V220.819H230.485V220.356H230.717V219.777H230.89V219.372H231.122V218.909H231.353V218.33H231.527V217.693H231.759V216.883H231.932V216.073H232.164V215.204H232.337V213.989H232.569V210.69H232.8V209.879H232.974V209.243H233.206V208.837H233.379V208.432H233.611V208.027H233.784V207.39H234.016V206.58H234.19V205.133H234.421V203.686H234.653V202.876H234.826V201.834H235.058V199.75H235.231V198.129H235.463V197.493H235.637V197.087H235.868V196.451H236.042V195.872H236.273V194.425H236.042V193.788H235.868V193.151H235.637L235.463 192.978V192.573H235.231V192.11H235.058V191.704H234.826V191.126H234.653V190.489H234.421V187.826H234.653V187.19H234.826V186.784H235.058V186.553H235.231V186.148H235.463L235.637 185.974V185.511H235.868L236.042 185.337V184.932H236.273V184.527H236.505V184.122H236.678V183.659H236.91V183.08H237.084V182.443H237.315V181.807H237.489V180.996H237.72V180.36H237.952V179.781H238.126V179.376H238.357V178.912H238.531V178.507H238.762V178.102H238.936V177.697H239.167L239.341 177.523V177.06H239.573V176.481H239.804V176.076H239.978V175.208H240.209V171.098H240.383V169.073H240.614V168.436H240.788V167.799H241.02V167.394H241.251V166.989H241.425V166.584H241.656V165.947H241.83V164.5H242.061V163.458H241.83V162.243H241.656V161.606H241.425L241.251 161.432V161.201H241.02V161.027H240.788V160.796H240.209V160.564H239.341V160.796H238.762V161.027H238.357V161.201H238.126V161.432L237.952 161.606H237.489V161.837L237.315 162.011H237.084V162.243H236.91V162.474H236.505V162.648H236.273V162.879H236.042V163.053H235.637V163.284L235.463 163.458H235.058V163.69H234.653V163.863H234.421V164.095H234.016V164.326H233.784V164.5H233.379V164.731H232.974V164.905H232.569V165.137H232.337V164.5H232.569V163.863H232.8V163.458H232.974V163.053H233.206V162.648H233.379V162.243H233.611V161.837H233.784V161.432H234.016V161.027H234.19V160.564H234.421V160.159H234.653L234.826 159.985V159.754H235.058L235.231 159.58V159.348H235.463V159.175H235.868V158.943H236.273V158.712H236.505V158.538H236.91V158.307H237.315L237.489 158.133V157.901H237.72V157.728H238.126V157.496H238.357L238.531 157.323V157.091H238.762V156.86H238.936V156.454H239.167L239.341 156.281V156.049H239.573V155.644H239.804V155.239H239.978V154.834H240.209V154.429H240.383V154.023H240.614V153.792H240.788V153.387H241.02V153.155H241.251V152.75L241.425 152.576H241.656V152.345H241.83V152.113H242.061L242.235 151.94V151.708H242.467L242.64 151.534V151.303H242.872V151.129H243.103V150.898L243.277 150.724H243.509V150.493H243.682V150.261H243.914L244.087 150.087V149.856H244.319V149.682H244.55V149.451L244.724 149.277H244.956V149.046H245.129V148.814H245.361L245.534 148.64V148.409H245.766V148.004L245.94 147.83H246.171V147.598H246.403L246.576 147.425V147.193H246.808V146.962L246.981 146.788H247.213V146.557L247.387 146.383H247.618V146.151H247.85L248.023 145.978V145.746H248.255V145.515L248.428 145.341H248.66V145.11L248.834 144.936H249.065V144.704H249.47V144.531H249.702V144.299L249.876 144.126H250.107V143.894H250.281V143.663H250.512L250.686 143.489V143.257H250.917V143.084H251.149V142.852L251.323 142.679H251.554V142.447H251.728V142.042H251.959V141.81L252.133 141.637H252.364V141.405H252.538V141H252.77V140.826H253.001V140.595H253.175V140.19H253.406V139.958H253.58V139.553H253.811L253.985 139.379V139.148H254.217L254.39 138.974V138.743H254.622V138.511H254.853L255.027 138.337V138.106H255.259L255.432 137.932V137.527H255.664V137.296H255.837V137.064H256.069V136.89H256.3V136.659H256.474V136.254H256.706L256.879 136.08V135.675H257.111V135.212H257.284V134.807H257.516V134.228H257.69V133.591H257.921V132.781H258.153V131.507H258.326V129.655H258.153V128.613H257.921V128.034H257.69V127.398H257.516V126.993H257.284V126.761H257.111V126.356H256.879L256.706 126.182V125.951H256.474L256.3 125.777V125.546H256.069V125.314H255.837L255.664 125.14V124.909H255.432L255.259 124.735V124.504H254.853V124.33H254.622V124.098H254.39L254.217 123.925V123.693H253.985V123.462L253.811 123.288H253.58V123.057H253.406V122.651H253.175L253.001 122.478V122.246H252.77V121.841H252.538V121.61L252.364 121.436H252.133V121.204H251.959V120.799H251.728L251.554 120.626V120.394H251.323V120.163L251.149 119.989H250.917V119.757H250.686L250.512 119.584V119.352H250.281L250.107 119.179V118.947H249.876V118.715L249.702 118.542H249.47V118.31H249.239L249.065 118.137V117.905H248.834L248.66 117.731V117.5H248.428L248.255 117.326V117.095H248.023V116.863L247.85 116.69H247.618V116.458H247.387L247.213 116.284V116.053H246.981L246.808 115.879V115.648H246.576V115.416L246.403 115.243H246.171V115.011H245.94L245.766 114.837V114.432H245.534V114.201L245.361 114.027H245.129V113.564L244.956 113.39H244.724V112.985H244.55V112.754H244.319V112.348H244.087V112.117L243.914 111.943H243.682V111.538H243.509V111.307H243.277L243.103 111.133V110.901H242.872V110.728H242.64V110.496H242.467V110.265H242.235L242.061 110.091V109.86H241.83V109.454H241.656V109.049H241.425L241.251 108.876V108.413H241.02V108.239H240.788V107.834H240.614V107.429H240.383V107.197H240.209V106.965H239.978V106.56L239.804 106.387H239.573V106.155H239.341V105.75L239.167 105.576H238.936V105.345H238.762V105.113H238.531L238.357 104.94V104.708H237.952V104.534H237.72V104.303H237.489V104.129H237.084V103.898H236.91V103.666H236.505V103.493H236.273V103.261H236.042V103.087H235.637V102.856H235.231V102.682H234.826V102.451H232.8V102.682H232.337L232.164 102.856V103.087H231.759V103.261H231.527V103.493L231.353 103.666H231.122V103.898H230.89V104.129L230.717 104.303H230.485V104.534L230.311 104.708H230.08V104.94L229.906 105.113H229.675V105.345H229.501V105.576H229.27V105.981H229.038L228.864 106.155V106.56H228.633V106.965H228.459V107.429H228.228V107.834H228.054V108.239H227.823V108.413H227.591V108.876L227.417 109.049H227.186V109.454H227.012V109.686H226.781L226.607 109.86V110.091H226.376L226.202 110.265V110.496H225.97V110.728H225.739L225.565 110.901V111.133H225.334L225.16 111.307V111.538H224.928L224.755 111.712V111.943H224.523V112.117H224.292V112.58L224.118 112.754H223.887V112.985L223.713 113.159H223.481V113.564H223.308V113.796H223.076V114.201H222.903V114.432H222.671V114.606H222.44V115.011H222.266V115.243H222.034L221.861 115.416V115.648H221.629V115.879L221.456 116.053H221.224V116.284H220.993L220.819 116.458V116.69H220.587L220.414 116.863V117.095H220.182V117.326L220.009 117.5H219.777V117.731H219.603V118.137H219.372V118.31H219.14V118.542L218.967 118.715H218.735V119.179L218.562 119.352H218.33V119.757H218.156V120.163H217.925V120.626H217.751V121.031H217.52V121.436H217.288L217.114 121.61V122.015H216.883V122.246H216.709V122.478H216.478L216.304 122.651V122.883H216.073V123.057H215.841V123.462H215.667V123.693H215.436V123.925L215.262 124.098H215.031V124.33L214.857 124.504H214.626V124.735L214.452 124.909H214.22V125.14H213.989L213.815 125.314V125.546H213.584V125.777L213.41 125.951H213.178V126.182L213.005 126.356H212.773V126.587H212.542L212.368 126.761V126.993H212.137L211.963 127.166V127.398H211.731V127.629L211.558 127.803H211.326V128.034L211.153 128.208H210.921V128.44H210.69V128.845H210.516V129.076H210.284L210.111 129.25V129.481H209.879L209.706 129.655V129.887H209.474V130.06H209.243V130.292L209.069 130.465H208.837V130.697H208.664V130.929H208.432L208.259 131.102V131.334H208.027V131.739L207.853 131.913H207.622V132.144H207.39V132.376H207.217V132.781H206.985L206.812 132.954V133.186H206.58L206.406 133.36V133.591H206.175V133.765H205.943V133.996H205.77V134.228H205.538L205.364 134.401V134.633H204.959V134.807H204.728V135.038L204.554 135.212H204.323V135.443H203.917V135.675H203.686L203.512 135.848V136.254H203.281V136.485H203.107V136.89H202.876V137.296H202.644V137.701H202.47V138.337H202.239V138.974H202.065V139.379H201.834V139.784L201.66 139.958H201.428V140.363H201.255V140.595H201.023V140.826H200.792L200.618 141V141.231H200.387L200.213 141.405V141.637H199.981L199.808 141.81V142.042H199.576V142.273L199.403 142.447H199.171V142.679H198.94L198.766 142.852V143.084H198.534V143.489L198.361 143.663H198.129V143.894H197.956V144.126H197.724V144.531H197.493L197.319 144.704V145.11H197.087V145.341L196.914 145.515H196.682V145.978L196.509 146.151H196.277V146.383L196.103 146.557H195.872V146.788H195.64L195.467 146.962V147.193H195.235V147.425L195.062 147.598H194.83V147.83L194.656 148.004H194.425V148.235H194.193L194.02 148.409V148.64H193.788L193.614 148.814V149.046H193.383V149.451H193.209V149.682H192.978V150.087L192.804 150.261H192.573V150.724H192.341V151.129H192.167V151.534H191.936V151.94H191.762V152.345H191.531V152.75H191.357V152.981H191.126V153.155H190.894V153.56H190.72V153.792H190.489V154.023L190.315 154.197H190.084V154.429L189.91 154.602H189.679V154.834L189.505 155.007H189.273V155.239H189.042L188.868 155.413V155.644H188.463V155.876H188.231L188.058 156.049V156.281H187.826V156.454H187.595V156.686L187.421 156.86H187.19V157.091H187.016V157.323H186.784V157.728H186.611V158.133H186.379L186.206 158.307V158.712H185.974V158.943H185.743V159.348H185.569V159.58H185.337L185.164 159.754V160.159H184.932V160.39L184.759 160.564H184.527V161.027L184.353 161.201H184.122V161.606H183.89V161.837H183.717V162.243H183.485V162.474L183.312 162.648H183.08V162.879L182.906 163.053H182.675V163.284H182.443V163.458H182.038V163.69L181.864 163.863H181.459V164.095H181.228V164.326L181.054 164.5H180.823V164.731H180.591L180.417 164.905V165.137H180.186L180.012 165.31V165.773H179.781V166.178H179.607V167.162H179.376V168.031H179.607V168.841H179.781V169.478H180.012L180.186 169.651V170.057H180.417V170.288H180.591V170.693H180.823V170.925H181.054L181.228 171.098V171.33H181.459L181.633 171.504V171.735H181.864L182.038 171.909V172.14H182.27V172.372L182.443 172.546H182.675V172.777H182.906L183.08 172.951V173.182H183.312L183.485 173.356V173.587H183.717L183.89 173.761V173.993H184.122V174.224H184.353L184.527 174.398V174.629H184.759L184.932 174.803V175.034H185.164L185.337 175.208V175.44H185.569V175.671L185.743 175.845H185.974V176.076H186.206L186.379 176.25V176.481H186.611L186.784 176.655V176.887H187.016L187.19 177.06V177.292H187.421V177.523L187.595 177.697H187.826V177.928H188.058L188.231 178.102V178.334H188.463L188.637 178.507V178.739H188.868L189.042 178.912V179.144H189.273V179.376H189.505L189.679 179.549V179.781H189.91L190.084 179.954V180.186H190.315L190.489 180.36V180.591H190.72V180.823L190.894 180.996H191.126V181.228H191.357L191.531 181.401V181.633H191.762L191.936 181.807V182.038H192.167L192.341 182.212V182.443H192.573V182.675H192.804L192.978 182.848V183.08H193.209L193.383 183.254V183.485H193.614L193.788 183.659V183.89H194.02V184.122L194.193 184.295H194.425V184.527H194.656L194.83 184.701V184.932H195.062L195.235 185.106V185.337H195.467L195.64 185.511V185.743H195.872V185.974H196.103V186.148H196.509V186.379L196.682 186.553H196.914V186.784H197.319V186.958H197.724V187.19H198.361V187.421H198.94V187.595H199.576V187.826H202.239V187.595H202.644V187.421H203.107V187.19H203.281V186.958H203.686V186.784H203.917V186.553L204.091 186.379H204.323V186.148H204.554L204.728 185.974V185.743H204.959V185.511L205.133 185.337H205.364V185.106L205.538 184.932H205.77V184.701L205.943 184.527H206.175V184.295H206.406V184.122H206.812V183.89H206.985V183.659H207.217L207.39 183.485V183.254H207.853L208.027 183.08V182.848H208.259V182.675H208.664V182.443H208.837V182.212H209.243V182.038H209.474V181.807H209.706L209.879 181.633V181.401H210.111L210.284 181.228V180.996H210.516L210.69 180.823V180.591H210.921V180.36H211.153L211.326 180.186V179.954H211.558L211.731 179.781V179.549H211.963V179.376H212.368V179.144H212.542V178.912H212.773V178.739H213.005V178.507H213.41V178.334H213.815V178.102L213.989 177.928H214.452V177.697H214.857V177.523H215.262V177.292H215.667V177.06H216.073V176.887H216.304V176.655L216.478 176.481H216.883V176.25H217.114L217.288 176.076V175.845H217.52V175.671H217.751V175.44H217.925V175.208H218.156L218.33 175.034V174.803H218.562L218.735 174.629V174.398H218.967L219.14 174.224V173.993H219.372V173.761H219.777V173.587H220.009V173.356H220.414V173.182H220.819V172.951H221.456V172.777H222.44V172.546H223.481V172.372H224.118V172.14H224.292V171.735H224.523V171.504H224.755L224.928 171.33V170.925H225.16V170.693H225.334V170.462H225.565V170.057H225.739V169.651H225.97V169.478H226.202V169.073H226.376V168.841H226.607V168.436H226.781V168.204H227.012L227.186 168.031V167.799H227.591V167.626H227.823V167.394H228.228V167.162H228.633V166.989H229.27V166.757H229.906V166.584H230.311V166.352H231.122V166.757H230.89V167.162H230.717V167.626H230.485V168.031H230.311V168.436H230.08L229.906 168.61V169.073H229.675L229.501 169.246V169.478H229.27V169.651H229.038V169.883L228.864 170.057H228.633V170.288H228.228L228.054 170.462V170.693H227.591V170.925L227.417 171.098H227.186V171.33H226.781V171.504H226.376V171.735L226.202 171.909H225.739V172.14H225.16V172.372H224.755V172.546H224.292V172.777L224.118 172.951H223.887V173.356H223.713V173.587H223.481V174.224H223.308V174.629H223.076L222.903 174.803V175.208H222.671V175.44H222.44V175.671L222.266 175.845H222.034V176.076H221.629V176.25H221.224V176.481H220.819V176.655H220.414V176.887H220.009V177.06H219.603V177.292H219.372V177.523H219.14L218.967 177.697V177.928H218.735L218.562 178.102V178.334H218.33L218.156 178.507V178.739H217.925V179.144H217.751V179.376H217.52V179.781H217.288L217.114 179.954V180.36H216.883V180.591H216.709V180.823H216.478L216.304 180.996V181.228H216.073V181.401H215.667V181.633H215.436V181.807H215.031V182.038H214.626L214.452 182.212V182.443H213.989V182.675L213.815 182.848H213.41V183.08H213.178V183.254H212.773V183.485H212.542L212.368 183.659V183.89H211.963V184.122H211.731L211.558 184.295V184.527H211.326L211.153 184.701V184.932H210.921V185.106H210.69V185.511H210.516V185.743H210.284V185.974L210.111 186.148H209.879V186.379L209.706 186.553H209.243V186.784L209.069 186.958H208.837V187.19H208.432V187.421L208.259 187.595H207.853V187.826H207.39V188H206.985V188.231H206.58V188.405H206.175V188.637H205.77V188.81H205.538V189.042H205.133V189.273L204.959 189.447H204.728V189.678H204.323V189.852H204.091V190.257H203.917V190.489H203.686V190.72L203.512 190.894H203.281V191.299H203.107V191.531H202.876V191.936H202.644V192.341H202.47V192.746H202.239V192.978L202.065 193.151H201.834V193.383L201.66 193.557H201.255V193.788H199.808V193.557H199.576L199.403 193.383V193.151H199.171V192.978H198.94V192.746H198.766V192.341H198.534V191.936H198.361V191.531H198.129V191.299H197.956V190.894H197.724V190.489H197.493V190.257L197.319 190.084H197.087V189.852L196.914 189.678H196.682V189.447L196.509 189.273H196.277V189.042H196.103V188.81H195.64V188.637H195.235V188.405H194.83V188.231H194.425V188H194.02V187.826H193.614V187.595H193.383L193.209 187.421V187.19H192.978V186.958L192.804 186.784H192.573V186.553H192.341V186.148L192.167 185.974H191.936V185.743H191.762V185.511H191.531L191.357 185.337V184.932H191.126V184.701H190.894L190.72 184.527V184.295H190.489V184.122H190.084V183.89H189.91V183.659H189.679V183.485H189.273V183.254H188.868V183.08H188.463V182.848H188.058V182.675H187.826V182.443H187.421V182.212H187.19L187.016 182.038V181.807H186.784V181.401L186.611 181.228H186.379V180.823H186.206V180.36H185.974V179.954H185.743L185.569 179.781V179.376H185.337V179.144H185.164V178.739H184.932V178.507L184.759 178.334H184.527V178.102L184.353 177.928H183.89V177.697L183.717 177.523H183.485V177.292H183.312V177.06H182.906V176.887H182.675V176.655H182.27V176.481H182.038V176.25H181.633V176.076H181.228V175.845H180.823V175.671H180.591V175.44H180.417V175.208H180.012V175.034H179.781V174.803L179.607 174.629H179.376V174.398H179.144L178.97 174.224V173.993H178.739V173.761L178.565 173.587H178.334V173.356L178.16 173.182H177.929V172.951L177.755 172.777H177.523V172.546H177.292L177.118 172.372V172.14H176.713V171.909H176.481L176.308 171.735V171.504H176.076V171.33H175.845V171.098H175.44L175.266 170.925V170.693H174.861V170.462H174.629V170.288H174.224V170.057H173.993V169.883H173.587V169.651L173.414 169.478H173.182V169.246L173.009 169.073H172.546V168.841H172.372V168.61H172.14L171.967 168.436V168.204H171.735L171.562 168.031V167.799H171.33L171.156 167.626V167.394H170.925V167.162H170.52V166.989H170.288V166.757L170.114 166.584H169.709V166.352H169.478V166.178H169.073V165.947H168.667V165.773H168.031V165.542H167.394V165.31H166.584V165.137H165.368V164.905H164.095V164.731H163.516V164.5H163.111V164.326H162.706V164.095H162.243V163.863H161.664V163.69H161.259V163.458H160.39V163.284H158.133V163.053H156.917V162.879H156.107V162.648H155.065V162.474H154.197V162.243H153.387V162.011H152.981V161.837H152.576V161.606H152.171V161.432H151.766V161.201H151.361V161.027H150.956V160.796H150.493V160.564H149.914V160.39H149.277V160.159H148.64V159.985H147.425V159.754H146.209V159.58H145.341V159.348H144.936V159.175H144.531V158.943H144.126V158.712H143.72V158.538H143.084V158.307H142.273V158.133H140.826V157.901H139.611V157.728H138.743V157.496H137.759V157.323H136.312V157.091H135.443V156.86H134.864V156.686H134.459V156.454H133.996V156.281H133.591V156.049H133.186V155.876H132.376V155.644H130.929V155.413H124.735V155.239H123.693V155.007H122.883V154.834H121.436V154.602H119.179V154.429H118.368V154.197H117.558V154.023H116.69V153.792H116.111V154.023H115.474V154.197H115.243V154.429L115.069 154.602H114.837V155.239H114.664V156.049H114.837V157.091H115.069V157.496H115.243V157.901H115.474V158.307H115.648V158.538H115.879V158.943H116.111V159.175L116.284 159.348H116.516V159.58L116.69 159.754H116.921V159.985L117.095 160.159H117.326V160.39H117.558L117.731 160.564V160.796H117.963V161.027L118.137 161.201H118.368V161.432L118.542 161.606H118.773V161.837L118.947 162.011H119.179V162.474H119.41L119.584 162.648V162.879H119.815V163.284L119.989 163.458H120.22V163.863H120.394V164.095H120.626V164.5H120.799V164.905H121.031V165.137H121.262L121.436 165.31V165.773H121.667L121.841 165.947V166.352H122.073V166.584H122.246V166.989H122.478V167.394H122.709V167.799H122.883V168.204H123.114V168.436H123.288V168.841H123.52V169.073L123.693 169.246H123.925V169.478L124.098 169.651H124.33V169.883H124.562L124.735 170.057V170.288H124.967L125.14 170.462V170.693H125.372V171.098H125.546V171.33H125.777V171.504H126.009V171.735L126.182 171.909H126.414V172.14H126.587V172.372H126.819L126.993 172.546V172.777H127.224L127.398 172.951V173.182H127.629V173.356H127.861V173.587H128.034V173.993H128.266V174.224H128.44V174.629H128.671V175.034L128.845 175.208H129.076V175.671H129.308V176.076L129.481 176.25H129.713V176.655H129.887V177.06H130.118V177.292H130.292V177.697H130.523V178.102H130.697V178.334H130.929V178.507H131.16V178.739L131.334 178.912H131.565V179.144H131.739V179.376H132.144V179.549H132.376V179.781H132.781V179.954H133.012V180.186H133.417L133.591 180.36V180.591H133.823V180.823L133.996 180.996H134.228V181.228H134.459L134.633 181.401V181.633H134.864V182.038L135.038 182.212H135.27V182.675H135.443V183.08H135.675V183.485H135.848V183.89H136.08V184.122H136.312L136.485 184.295V184.701H136.717V184.932L136.89 185.106H137.122V185.337L137.296 185.511H137.527V185.743H137.759V185.974H138.164L138.337 186.148V186.379H138.569L138.743 186.553V186.784H138.974L139.148 186.958V187.19H139.379V187.421H139.611L139.784 187.595V187.826H140.016L140.19 188V188.231H140.421L140.595 188.405V188.637H140.826V188.81H141.058V189.042H141.231V189.273H141.463L141.637 189.447V189.678H141.868L142.042 189.852V190.084H142.273L142.447 190.257V190.489H142.679V190.72H142.91L143.084 190.894V191.126H143.315L143.489 191.299V191.531H143.72L143.894 191.704V192.11H144.126V192.341H144.357V192.573H144.531V192.978H144.762L144.936 193.151V193.557H145.167V193.962H145.341V194.193H145.573V194.598H145.746V194.83H145.978V195.235H146.209L146.383 195.409V195.64H146.614V195.872H146.788V196.277H147.02L147.193 196.451V196.682H147.425V196.856H147.656V197.261H147.83V197.724H148.062V198.303H148.235V199.576H148.467V200.56H148.64V201.428H148.872V201.834H149.046V202.239H149.277V202.47H149.509V202.876H149.682V203.281H149.914V203.686H150.087V204.091H150.319V204.496H150.493V205.133H150.724V205.538H150.956V206.175H151.129V206.58H151.361L151.534 206.754V207.159H151.766V207.622L151.94 207.795H152.171V208.201H152.345V208.606H152.576V209.069H152.808V209.474H152.981V210.053H153.213V210.921H153.387V211.5H153.618V212.31H153.792V212.773H154.023V213.352H154.197V213.757H154.429V213.989H154.66V214.394H154.834V214.799H155.065V215.204H155.239V215.436H155.47V216.073H155.644V216.651H155.876V217.693H156.107V219.372H156.281V220.182H156.512V220.819H156.686V221.224H156.917L157.091 221.398V221.803H157.323V222.034H157.496V222.44H157.728V222.671H157.959V223.076H158.133V223.481H158.364V224.292H158.538V225.739H158.77V226.781H158.943V227.186H159.175V227.591H159.406V227.996H159.58V228.401H159.812V228.807H159.985V229.038H160.217V229.443H160.39V230.08H160.622V230.485H160.796V231.122H161.027V231.527H161.259V231.932H161.432V232.337H161.664V232.743H161.837V233.148H162.069V233.379H162.243V233.784H162.474V234.19H162.706V235H162.879V236.273H163.111V237.489H163.284V238.299H163.516V239.341H163.69V240.788H163.921V241.83H164.095V242.467H164.326V242.872H164.558V243.277L164.731 243.451H164.963V243.682L165.137 243.856H165.368V244.087H165.542V244.319H165.773V244.493H166.005V244.898H166.179V245.129H166.41L166.584 245.303V245.534H166.815L166.989 245.708V245.94H167.22V246.171L167.394 246.345H167.626V246.576H167.857L168.031 246.75V246.981H168.262L168.436 247.155V247.387H168.667V247.618L168.841 247.792H169.073V248.023L169.246 248.197H169.478V248.428H169.883V248.602H170.114V248.834L170.288 249.007H170.693V249.239H171.156V249.47H171.562V249.644H171.967V249.876H172.546V250.049H173.182V250.281H173.587V250.454H173.819V250.686H174.224V250.917H174.456L174.629 251.091V251.323H174.861L175.034 251.496V252.77L174.861 252.943H174.629V253.175L174.456 253.348H174.224V253.58H173.993L173.819 253.754V253.985H173.587V254.217H173.182L173.009 254.39V254.622H172.777V254.795H172.372V255.027H172.14L171.967 255.201V255.432H171.562V255.606H171.33V255.837H171.156V256.069H170.693L170.52 256.243V256.474H170.288V256.648H169.883V256.879L169.709 257.053H169.246V257.284H168.841V257.516H168.436V257.69H168.031V257.921H167.394V258.095H166.815V258.326H166.179V258.5H165.368V258.731H164.731V258.905H164.095V259.137H163.69V259.368H163.284L163.111 259.542V259.773H162.879L162.706 259.947V260.178H162.474V260.352H162.243V260.584H162.069V260.989H161.837V261.394H161.664V261.799H161.432V262.667H161.259V308.394H161.027V311.693H160.796V317.481H161.027V319.102H161.259V319.739H161.432V320.144H161.664V320.549H161.837V321.012H162.069V321.417H162.243V321.823H162.474V322.401H162.706V323.038H162.879V332.125H162.706V332.936H162.474V333.341H162.243V333.746H162.069V333.978H161.664V334.151H161.027V333.978H160.796V333.573H160.622V332.762H160.39V329.637H160.217V328.421H159.985V327.553H159.812V326.569H159.58V320.144H159.812V311.114H159.58V310.246H159.406V309.667H159.175V309.262H158.943V308.799H158.77V308.394H158.538V307.989H158.364V307.584H158.133V304.516H158.364V303.879H158.133V302.201H157.959V299.538H157.728V292.129H157.496V291.319H157.323V290.277H157.091V288.83H156.917V279.742H156.686V278.932H156.512V278.295H156.281V277.89H156.107V277.485H155.876V277.08H155.644V276.443H155.47V275.633H155.239V272.334H155.065V271.118H154.834V270.076H154.66V269.034H154.429V266.777H154.197V265.504H154.023V264.925H153.792V264.288H153.618V263.883H153.387V263.478H153.213V263.073H152.981V262.436H152.808V260.352H152.576V255.027H152.345V254.39H152.171V253.985H151.94V253.754L151.766 253.58H151.534V253.348L151.361 253.175H150.956V252.943H150.493V252.77H147.193V252.943H146.383V253.175H145.341V253.348H137.759V253.175H136.717V252.943H135.848V252.77H134.864V252.538H133.591V252.307H133.012V252.133H132.607V251.901H132.376V251.728H132.607V251.323H132.781V251.091H133.012V250.917H133.417V250.686H133.823V250.454H134.228V250.281H135.038V250.049H136.485V249.876H137.527V249.644H138.164V249.47H138.569V249.239H139.148V249.007H139.379V248.834H139.784V248.602H140.016V248.428H140.421V248.197L140.595 248.023H141.058V247.792L141.231 247.618H141.463V247.387H141.868V247.155L142.042 246.981H142.447V246.75H142.91L143.084 246.576V246.345H143.489V246.171H143.894V245.94H144.357V245.708L144.531 245.534H144.936V245.303H145.167V245.129H145.573V244.898H145.978V244.724H146.209V244.493H146.614V244.319H147.02V244.087H147.193V243.856H147.425V243.682H147.83V243.451H148.062L148.235 243.277V243.045H148.467L148.64 242.872V242.64H148.872L149.046 242.467V242.235H149.277V242.004H149.509L149.682 241.83V241.598H149.914L150.087 241.425V241.193H150.493V241.02H150.724V240.788H150.956V240.557L151.129 240.383H151.534V240.151H151.94V239.978H152.576V239.746H153.213V239.573H153.618V239.341H154.197V239.167H154.66V238.936H154.834V238.704H155.239V238.531H155.47V238.299L155.644 238.126H156.107V237.894L156.281 237.72H156.512V237.489H156.686V237.257H156.917L157.091 237.084V236.852H157.323L157.496 236.678V236.447H157.728V236.273H157.959V235.868H158.133V235.637H158.364V235.405H158.538V235H158.77V234.595H158.943V234.19H159.175V232.106H158.943V231.701H158.77V231.295H158.538L158.364 231.122V230.659H158.133L157.959 230.485V230.08H157.728V229.848H157.496V229.443H157.323V228.807H157.091V228.228H156.917V227.591H156.686V227.186H156.512V226.781H156.281V226.376H156.107V226.144H155.876V225.739H155.644V225.507L155.47 225.334H155.239V225.102L155.065 224.928H154.834V224.697L154.66 224.523H154.429V224.292H154.197L154.023 224.118V223.887H153.792V223.481H153.618V223.25H153.387L153.213 223.076V222.671H152.981V222.208H152.808V221.803H152.576V221.224H152.345V220.587H152.171V219.951H151.94V219.372H151.766V218.735H151.534V218.098H151.361V217.693H151.129V217.288H150.956V217.057H150.724V216.651H150.493L150.319 216.478V216.246H150.087L149.914 216.073V215.61H149.682L149.509 215.436V215.204H149.277V215.031H149.046V214.799L148.872 214.626H148.64V214.394L148.467 214.22H148.235V213.989H148.062V213.757H147.83L147.656 213.584V213.352H147.425V213.178H147.193V212.773H147.02V212.542H146.788V212.137H146.614V211.731H146.383V211.5H146.209V211.095H145.978V210.921H145.746V210.458H145.573V210.053H145.341L145.167 209.879V209.474H144.936V209.243H144.762V208.837H144.531V208.432H144.357V208.201H144.126V207.795H143.894L143.72 207.622V207.39H143.489V206.985H143.315V206.754H143.084L142.91 206.58V206.348H142.679V206.175H142.447V205.943L142.273 205.77H142.042V205.538H141.868V205.307H141.637L141.463 205.133V204.901H141.231L141.058 204.728V204.496H140.826V204.091H140.595V203.86L140.421 203.686H140.19V203.281H140.016V203.049H139.784V202.644H139.611V202.239H139.379V202.007H139.148V201.602H138.974V201.197H138.743L138.569 201.023V200.792H138.337V200.387H138.164V200.155H137.932V199.75L137.759 199.576H137.527V199.171H137.296V198.708H137.122V198.129H136.89V197.724H136.717V197.261H136.485V196.856H136.312V196.451H136.08V196.045H135.848L135.675 195.872V195.64H135.443V195.235H135.27V195.004H135.038L134.864 194.83V194.598H134.633L134.459 194.425V194.193H134.228V193.962H133.996L133.823 193.788V193.557H133.591L133.417 193.383V192.978H133.186V192.746L133.012 192.573H132.781V192.11H132.607V191.704H132.376V191.126H132.144V190.72H131.97V190.084H131.739V189.447H131.565V189.042H131.334V188.637H131.16V188.231H130.929V188H130.697L130.523 187.826V187.595H130.292L130.118 187.421V186.958H129.887L129.713 186.784V186.553H129.481L129.308 186.379V186.148H129.076V185.974H128.845V185.743H128.671V185.511H128.44L128.266 185.337V185.106H128.034L127.861 184.932V184.701H127.629V184.527H127.398V184.295L127.224 184.122H126.993V183.89H126.819V183.659H126.587L126.414 183.485V183.254H126.182L126.009 183.08V182.848H125.777V182.675H125.546V182.443H125.372V182.212H125.14V181.807L124.967 181.633H124.735V181.228H124.562V180.591H124.33V179.954H124.098V179.376H123.925V178.912H123.693V178.507H123.52V178.102H123.288L123.114 177.928V177.697H122.883L122.709 177.523V177.292H122.478V177.06H122.246V176.887H121.841V176.655H121.436L121.262 176.481V176.25H120.799V176.076H120.394V175.845L120.22 175.671H119.989V175.44H119.815V175.208H119.584V174.803H119.41V174.224H119.179V173.587H118.947V172.951H118.773V172.372H118.542V171.909L118.368 171.735H118.137V171.504L117.963 171.33H117.731V170.925H117.558V170.693H117.326V170.462H117.095L116.921 170.288V170.057H116.69V169.651L116.516 169.478H116.284V169.073H116.111V168.61H115.879V168.436H115.648V168.031H115.474V167.626H115.243V167.394H115.069V166.989H114.837V166.757L114.664 166.584H114.432V166.352L114.259 166.178H114.027V165.947H113.796V165.542H113.622V165.31H113.39L113.217 165.137V164.905H112.985L112.812 164.731V164.5H112.58V164.326H112.348V164.095H112.175V163.69H111.943V163.458H111.77V163.053H111.538V162.648L111.364 162.474H111.133V162.011H110.959V161.606H110.728V161.432H110.496V161.027H110.323V160.564H110.091L109.917 160.39V159.985H109.686V159.58H109.512V158.943H109.281V158.538H109.049V158.133H108.876V157.496H108.644L108.47 157.323V156.86H108.239L108.065 156.686V156.281H107.834V156.049L107.66 155.876H107.429V155.644H107.197V155.413L107.023 155.239H106.792V155.007L106.618 154.834H106.387V154.602L106.213 154.429H105.981V154.197H105.75V153.792H105.576V153.56H105.345V153.155L105.171 152.981H104.94V152.576H104.766V152.345H104.534V151.94H104.361V151.534H104.129V151.129H103.898V150.898H103.724V150.493H103.493V150.261L103.319 150.087H103.087V149.856L102.914 149.682H102.682V149.451H102.451V149.046H102.277V148.814H102.046L101.872 148.64V148.409H101.64L101.467 148.235V148.004H101.235L101.062 147.83V147.598H100.83V147.425H100.598V147.193H100.193V146.962L100.02 146.788H99.7881V146.557L99.6145 146.383H99.383V146.151H98.9778V145.978H98.5726V145.746H98.1675V145.515H97.5308V145.341H96.0837V145.11H93.8263V144.936H93.016V144.704H92.3793V144.531H91.9741V144.299H91.5689V144.126H91.1638V143.894H90.7007V143.663H90.2955V143.489H89.8904V143.257H89.4852V143.084H89.08V142.852H88.4433V142.679H87.4015V142.447H86.5911V142.273H86.0123V142.042H85.5492V141.81H85.1441V141.637H84.7389V141.405L84.5652 141.231H84.1601V141H83.9285V140.826H83.697V140.595H83.2918V140.363L83.1182 140.19H82.713V139.958H82.25V139.784H81.8448V139.553H81.4396V139.379H80.8608V139.148H80.2241V138.974H79.8189V138.743H79.4138V138.511H78.9507L78.7771 138.337V138.106H78.3719V137.932H78.1404V137.701H77.7352L77.5616 137.527V137.296H77.0985V137.064H76.6933L76.5197 136.89V136.659H76.1145V136.485H75.6515V136.254L75.4778 136.08H75.0726V135.848H74.6675V135.675H74.2623V135.443H73.7992V135.212H73.2204V135.038H71.5418V134.807H68.0689V134.633H67.0271V134.401H66.2167V134.228H65.58V133.996H64.7697V133.765H64.3645V133.591H63.7278V133.36H63.4963V133.186H63.0911V132.954H62.6859L62.5123 132.781V132.549H62.2808V132.376H62.0492V132.144H61.8756V131.334H62.0492V131.102H62.2808V130.929H62.9175V130.697H65.58V130.465H66.6219V130.292H67.2007V130.06H67.6638V129.887H68.0689V129.655L68.2426 129.481H68.6478V129.25H68.8793L69.0529 129.076V128.613H69.2845V128.44H69.516V128.208H69.6896V127.803H69.9212V127.398H70.0948V126.993H70.3263V126.587H70.5V126.182H70.7315V125.951H70.963V125.546H71.1367V125.314H71.3682L71.5418 125.14V124.909H71.7734V124.504L71.947 124.33H72.1786V124.098L72.3522 123.925H72.5837V123.693H72.8152V123.288H72.9889V123.057H73.2204L73.3941 122.883V122.478H73.6256V122.246H73.7992V121.841H74.0308V121.61H74.2623V121.204H74.4359V120.799H74.6675L74.8411 120.626V120.163H75.0726V119.757H75.2463V119.352H75.4778V118.947H75.6515V118.542H75.883V118.31H76.1145L76.2882 118.137V117.905H76.5197V117.5L76.6933 117.326H76.9249V117.095H77.0985V116.69H77.33V116.284H77.5616V115.879H77.7352V114.837H77.9667V109.454H77.7352V108.413H77.5616V107.834H77.33V107.429H77.0985V106.965H76.9249V106.56H76.6933V106.155H76.5197V105.576H76.2882V104.303H76.1145V102.682H75.883V101.004H76.1145L76.2882 100.83V100.598H76.6933V100.83H77.0985V101.004H77.5616V101.235L77.7352 101.409H77.9667V101.64H78.3719L78.5455 101.814V102.046H78.7771V102.277H79.1822V102.451H79.4138V102.682H79.8189L79.9926 102.856V103.087H80.3978V103.261H80.6293V103.493H80.8608L81.0345 103.666V103.898H81.266V104.129H81.4396V104.534H81.6712L81.8448 104.708V105.113H82.0763V105.345H82.25V105.75H82.4815V105.981H82.713L82.8867 106.155V106.387H83.1182L83.2918 106.56V106.792H83.5234L83.697 106.965V107.197H84.1601V107.429L84.3337 107.602H84.5652V107.834H84.9704V108.007H85.3756V108.239L85.5492 108.413H86.0123V108.644H86.1859V108.876H86.4175L86.5911 109.049V109.281H86.8226V109.686L86.9963 109.86H87.2278V110.265H87.4015V110.496H87.633V110.901H87.8645V111.133L88.0381 111.307H88.2697V111.712H88.4433V111.943H88.6749L88.8485 112.117V112.348H89.08V112.58H89.3115L89.4852 112.754V112.985H89.7167L89.8904 113.159V113.39H90.1219L90.2955 113.564V113.796H90.5271V114.027L90.7007 114.201H90.9322V114.432H91.1638L91.3374 114.606V114.837H91.5689V115.011H91.9741V115.243L92.1478 115.416H92.6108V115.648H92.7845V115.879H93.1896V116.053H93.5948V116.284H93.8263V116.458H94.2315V116.69H94.6367V116.863H94.8682V117.095H95.0418V117.326H95.447V117.5H95.6785V117.731H95.9101L96.0837 117.905V118.137H96.3152L96.4889 118.31V118.542H96.7204V118.947H96.8941V119.179H97.1256V119.584H97.2992V119.989H97.5308V120.394H97.7623V120.799H97.9359V121.031H98.1675L98.3411 121.204V121.436H98.5726L98.7463 121.61V121.841H98.9778V122.015H99.2093V122.246H99.6145V122.478H100.02V122.651H100.83V122.883H108.876V122.651H109.686V122.478H110.091V122.246H110.496V122.015H110.728V121.841H111.133V121.61H111.364L111.538 121.436V121.204H111.943V121.031H112.175V120.799H112.58V120.626H113.217V120.394H113.796V120.163H114.664V119.989H115.069V119.757H115.474V119.584H115.879V119.352H116.284V119.179H116.516V118.947H116.921V118.715L117.095 118.542H117.558V118.31H117.963V118.137H118.542V117.905H119.989V117.731H129.713V117.5H130.292V117.326H130.929V117.095H131.16V116.863H131.565V116.69H131.97V116.458L132.144 116.284H132.607V116.053L132.781 115.879H133.186V115.648H133.591V115.416H134.459V115.243H135.443V115.011H136.312V114.837H136.89V114.606H137.527V114.432H137.932V114.201H138.337V114.027H138.743V113.796H139.148V113.564H139.611L139.784 113.39V113.159H140.19V112.985H140.595V112.754H140.826V112.58H141.058V112.348H141.231V112.117H141.463L141.637 111.943V111.712H141.868V111.307L142.042 111.133H142.273V110.728H142.447V110.265H142.679V109.86H142.91V109.454H143.084V109.049H143.315V108.644H143.489V108.007H143.72V107.602H143.894V106.965H144.126V106.155H144.357V105.345H144.531V104.534H144.762V103.261H144.936V99.5566H145.167V98.7463H145.341V98.1096H145.573V97.7044H145.746V97.2992H145.978V97.0677H146.209V96.6625H146.383V96.0837H146.614V95.447H146.788V94.6367H147.02V93.7684H147.193V92.9581H147.425V88.4433H147.193V87.8066H147.02V87.4014H146.788V86.9963H146.614V86.7647H146.383L146.209 86.5911V86.3596H145.978V86.1859H145.573V85.9544H145.341V85.7808H144.936V85.5492H144.762V85.3177H144.357V85.1441H144.126V84.9125H143.894V84.7389H143.489V84.5074L143.315 84.3337H143.084V84.1022L142.91 83.9285H142.679V83.697H142.447V83.4655H142.042L141.868 83.2918V83.0603H141.463V82.8867H141.231V82.6551H140.826V82.4815H140.595V82.25H140.19V82.0184L140.016 81.8448H139.784V81.6133H139.379V81.4396H139.148V81.2081L138.974 81.0344H138.743V80.8029H138.337L138.164 80.6293V80.3978H137.759V80.1662H136.89V79.9926H135.443V79.7611H134.228V79.5874H133.823V79.3559H133.417V79.1822H133.012V78.9507H132.781V78.7192H132.376V78.5455H132.144V78.314H131.739L131.565 78.1404V77.9088H131.16V77.7352H130.929V77.5037H130.523V77.33H130.118V77.0985H129.887V76.867H129.481V76.6933H129.076V76.4618H128.845V76.2881H128.44V76.0566H128.034V75.883H127.629V75.6515H127.224V75.4778H126.587V75.2463H126.009V75.0147H124.967V74.8411H123.693V74.6096H122.709V74.4359H122.073V74.2044H121.667V74.0308H121.262V73.7992H120.799V73.5677H120.394V73.3941H119.815V73.1625H119.179V72.9889H118.542V72.7574H117.731V72.5837H117.095V72.3522H116.516V72.1785H116.111V71.947H115.648V71.7155H115.243V71.5418H114.837V71.3103H114.432V71.1367H114.027V70.9051H113.622V70.7315H113.217V70.5H112.58V70.2684H111.943V70.0948H111.364V69.8633H110.728V69.6896H110.091V69.4581H109.686V69.2845H109.281V69.0529H108.876V68.8793H108.47V68.6478H108.239V68.4162H107.834V68.2426H107.429V68.0111H107.197V67.8374H106.792V67.6059H106.387L106.213 67.4322V67.2007H105.75V66.9692L105.576 66.7955H105.345V66.564H104.94L104.766 66.3904V66.1588H104.534L104.361 65.9852V65.7537H104.129V65.58H103.898V65.3485H103.493V65.117H99.383V64.9433H98.5726V64.7118H97.5308V64.5382H95.447V64.3066H94.2315V64.133H93.5948V63.9015H93.1896V63.6699L93.016 63.4963H92.6108V63.2648H92.1478V63.0911H91.7426V62.8596L91.5689 62.6859H91.1638V62.4544H90.7007L90.5271 62.2808V62.0492H90.1219V61.8177H89.8904V61.6441H89.4852V61.4125L89.3115 61.2389H89.08V61.0074H88.6749V60.8337H88.2697V60.6022H87.8645V60.3707H87.4015V60.197H86.9963V59.9655H86.4175V59.7918H86.0123V59.5603H85.5492V59.3867H85.1441V59.1551H84.7389L84.5652 58.9815V58.75H84.1601V58.5184H83.697L83.5234 58.3448V58.1133H83.1182V57.9396H82.4815V57.7081H81.6712V57.5345H79.8189V57.3029H79.1822V57.1293H78.7771V56.8978H78.3719V56.6662H78.1404V56.4926H77.7352V56.2611L77.5616 56.0874H77.33V55.8559H77.0985V55.6822H76.6933V55.4507H76.5197V55.2192H76.1145V55.0455H75.6515V54.814H75.0726V54.6404H74.6675V54.4088H74.0308V54.2352H73.6256V54.0037H73.2204V53.83H72.8152V53.5985H72.5837V53.367H72.1786V53.1933H71.7734V52.9618H71.3682V52.7882H70.7315V52.5566H69.9212V52.383H68.8793V52.1515H67.8374V51.9199H67.0271V51.7463H65.9852V51.5148H64.9433V51.3411H64.3645V51.1096H63.7278V50.9359H63.3226V50.7044H62.9175V50.5308H62.5123V50.2992H61.6441V50.0677H59.7919ZM190.084 63.2648V63.4963H189.273V63.6699H188.868V63.9015H188.637V64.133L188.463 64.3066H188.058V64.5382H187.826V64.7118H187.595V65.117H187.421V65.3485H187.19V65.7537H187.016V66.564H186.784V67.4322H186.611V67.8374H186.379V68.4162H186.206V68.6478H185.974V69.0529H185.743V69.2845L185.569 69.4581H185.337V69.8633H185.164V70.0948H184.932V70.5H184.759V70.9051H184.527V71.3103H184.353V71.947H184.122V72.3522H183.89V72.7574H183.717V73.3941H183.485V73.7992H183.312V74.0308H183.08V74.4359H182.906V74.8411H182.675V75.2463H182.443V75.6515H182.27V75.883H182.038V76.2881H181.864V76.6933H181.633V77.0985H181.459V77.5037H181.228V77.7352L181.054 77.9088H180.823V78.1404H180.591L180.417 78.314V78.5455H180.186L180.012 78.7192V78.9507H179.781V79.3559H179.607V79.5874H179.376V79.7611H179.144V80.1662H178.97V80.3978H178.739V80.8029H178.565V81.0344H178.334V81.4396H178.16V81.8448H177.929L177.755 82.0184V82.25H177.523V82.6551H177.292V82.8867L177.118 83.0603H176.887V83.4655H176.713V83.697H176.481V84.1022H176.308V84.5074H176.076V84.7389H175.845V85.1441H175.671V85.5492H175.44V85.7808H175.266V86.1859H175.034L174.861 86.3596V86.5911H174.629V86.9963H174.456V87.2278H174.224V87.633H173.993L173.819 87.8066V88.2118H173.587V88.4433H173.414V88.8485H173.182V89.2537H173.009V89.4852H172.777V89.6588H172.546V90.064H172.372V90.2955H172.14V90.5271L171.967 90.7007H171.735V90.9322L171.562 91.1059H171.33V91.3374H171.156V91.7426H170.925V91.9162H170.693V92.1477H170.52V92.3793H170.288L170.114 92.5529V92.7844H169.883V93.1896H169.709V93.5948H169.478V94H169.246V94.4051H169.073V95.2155H168.841V96.0837H168.667V96.6625H168.436V97.2992H168.262V97.7044H168.031V98.1096H167.857V98.5147H167.626V98.9778H167.394L167.22 99.1514V99.383H166.989V99.7881L166.815 99.9618H166.584V100.367H166.41V100.598H166.179V101.004H166.005V101.409H165.773V101.64H165.542V102.046H165.368V102.277H165.137V102.682L164.963 102.856H164.731V103.087H164.558V103.493H164.326V103.666H164.095V104.129L163.921 104.303H163.69V104.708H163.516V105.113H163.284V105.576H163.111V106.155H162.879V106.792H162.706V107.429H162.474V107.834H162.243L162.069 108.007V108.413H161.837V108.644H161.664V108.876H161.432L161.259 109.049V109.281H161.027V109.454H160.796V109.686L160.622 109.86H160.39V110.091H160.217V110.496H159.985V110.728L159.812 110.901H159.58V111.307H159.406V111.538H159.175V111.943H158.943V112.348H158.77V112.754H158.538V112.985H158.364V113.39H158.133L157.959 113.564V114.027H157.728V114.201H157.496V114.432L157.323 114.606H157.091V115.011H156.917V115.243H156.686V115.648H156.512V116.053H156.281V116.69H156.107V117.5H155.876V118.137H155.644V118.542H155.47V118.947H155.239V119.179L155.065 119.352H154.834V119.584L154.66 119.757H154.429V120.163H154.197V120.394H154.023V120.626H153.792L153.618 120.799V121.204H153.387V121.436H153.213V121.841H152.981L152.808 122.015V122.478H152.576V122.883H152.345L152.171 123.057V123.288H151.94V123.693H151.766V123.925H151.534L151.361 124.098V124.33H151.129L150.956 124.504V124.735H150.724V124.909H150.493V125.14L150.319 125.314H150.087V125.546H149.914V125.951H149.682V126.182L149.509 126.356H149.277V126.761H149.046V126.993H148.872V127.398H148.64V127.803H148.467V128.208H148.235V128.44H148.062V128.845H147.83V129.076H147.656V129.481H147.425V129.655H147.193V129.887L147.02 130.06H146.788V130.292H146.614V130.697H146.383V130.929H146.209V131.334H145.978V131.507H145.746V131.913H145.573V132.376H145.341L145.167 132.549V132.954H144.936V133.186L144.762 133.36H144.531V133.765H144.357V133.996H144.126V134.228H143.894L143.72 134.401V134.633H143.489V135.038L143.315 135.212H143.084V135.675H142.91V136.08H142.679V136.485H142.447V137.064H142.273V137.701H142.042V138.337H141.868V138.743H141.637V138.974H141.463V139.379H141.231L141.058 139.553V139.784H140.826V139.958H140.595V140.19L140.421 140.363H140.19V140.595H140.016V140.826H139.784L139.611 141V141.405H139.379V141.637H139.148L138.974 141.81V142.273H138.743L138.569 142.447V142.852H138.337V143.489H138.164V144.299H137.932V145.11H138.164V145.978H138.337V146.383H138.569L138.743 146.557V146.788H138.974L139.148 146.962V147.193H139.379V147.425H139.611L139.784 147.598V147.83H140.19V148.004H140.595V148.235H141.058V148.409H141.463V148.64H141.868V148.814H142.447V149.046H142.91V149.277H143.315V149.451H143.72V149.682H144.126V149.856H144.357V150.087H144.762V150.261H145.167V150.493H145.573V150.724L145.746 150.898H146.209V151.129H146.614V151.303H147.02V151.534H147.425V151.708H147.656V151.94L147.83 152.113H148.235V152.345H148.467V152.576L148.64 152.75H148.872V152.981H149.277V153.155H149.509V153.387H149.914V153.56H150.319V153.792H150.724V154.023H151.129V154.197H151.766V154.429H152.576V154.602H153.213V154.834H153.792V155.007H154.429V155.239H154.834V155.413H155.065V155.644H155.47V155.876L155.644 156.049H156.107V156.281L156.281 156.454H156.686V156.686H156.917V156.86H157.323V157.091H157.728V157.323H157.959V157.496H158.364V157.728H158.77L158.943 157.901V158.133H159.406V158.307H159.812V158.538H160.39V158.712H161.027V158.943H163.69V159.175H164.963V159.348H165.368V159.58H165.773V159.754H166.005V159.985H166.41L166.584 160.159V160.39H166.815L166.989 160.564V160.796H167.394V161.027H167.626V161.201H168.031V161.432H168.262V161.606H168.667V161.837H169.073L169.246 162.011V162.243H169.709V162.474L169.883 162.648H170.288V162.879H170.52V163.053H170.925V163.284H171.156V163.458H171.562V163.69H172.14V163.863H173.009V164.095H174.456V163.863H175.266V163.69H175.671V163.458H176.076V163.284H176.481V163.053H176.713L176.887 162.879V162.648H177.118L177.292 162.474V162.243H177.523V162.011H177.755L177.929 161.837V161.606H178.16V161.201L178.334 161.027H178.565V160.796H178.739V160.39H178.97V160.159L179.144 159.985H179.376V159.754H179.607L179.781 159.58V159.348H180.186V159.175H180.417V158.943H180.591V158.712H181.054L181.228 158.538V158.307H181.459V158.133H181.864V157.901L182.038 157.728H182.27V157.496L182.443 157.323H182.675V157.091H182.906V156.86L183.08 156.686H183.312V156.454L183.485 156.281H183.717V156.049L183.89 155.876H184.122V155.644H184.353V155.413L184.527 155.239H184.759V155.007L184.932 154.834H185.164V154.602H185.337V154.197H185.569L185.743 154.023V153.792H185.974V153.387H186.206V153.155H186.379V152.75H186.611L186.784 152.576V152.345H187.016V151.94H187.19V151.708H187.421L187.595 151.534V151.129H187.826V150.898H188.058V150.493H188.231V150.261H188.463V149.856L188.637 149.682H188.868V149.451L189.042 149.277H189.273V149.046H189.505V148.814L189.679 148.64H189.91V148.409H190.315L190.489 148.235V148.004H190.894V147.83H191.126V147.598H191.357L191.531 147.425V147.193H191.762V146.962L191.936 146.788H192.167V146.557H192.341V146.151H192.573V145.746H192.804V145.341H192.978V144.936H193.209V144.299H193.383V143.894H193.614V143.489H193.788V143.084H194.02V142.679H194.193V142.447H194.425V142.042H194.656V141.81L194.83 141.637H195.062V141.405L195.235 141.231H195.467V141L195.64 140.826H195.872V140.595H196.103V140.363L196.277 140.19H196.509V139.958L196.682 139.784H196.914V139.553H197.087V139.148H197.319L197.493 138.974V138.743H197.724V138.511H197.956L198.129 138.337V137.932H198.361V137.701H198.534V137.296H198.766V136.89H198.94V136.485H199.171V136.08H199.403V135.675H199.576V135.443H199.808V135.038H199.981V134.807H200.213L200.387 134.633V134.401H200.618V133.996H200.792V133.765H201.023V133.591H201.255V133.36L201.428 133.186H201.66V132.954L201.834 132.781H202.065V132.549L202.239 132.376H202.47V132.144H202.644V131.913H202.876V131.739H203.107V131.507L203.281 131.334H203.512V131.102L203.686 130.929H203.917V130.697H204.091V130.465H204.323V130.292H204.554V130.06L204.728 129.887H204.959V129.481H205.133V129.25H205.364L205.538 129.076V128.613H205.77L205.943 128.44V128.208H206.175V127.803H206.406L206.58 127.629V127.398H206.812V127.166H206.985V126.761H207.217L207.39 126.587V126.356H207.622V126.182H207.853V125.951L208.027 125.777H208.259V125.314L208.432 125.14H208.664V124.735H208.837V124.33H209.069V123.925H209.243V123.462H209.474V123.057H209.706L209.879 122.883V122.478H210.111V122.246H210.284V121.841H210.516V121.61L210.69 121.436H210.921V121.204H211.153L211.326 121.031V120.799H211.558L211.731 120.626V120.394H211.963V120.163H212.137V119.757H212.368L212.542 119.584V119.352H212.773V119.179H213.005V118.715L213.178 118.542H213.41V118.31H213.584V117.905H213.815L213.989 117.731V117.5H214.22V117.095H214.452V116.863L214.626 116.69H214.857V116.458L215.031 116.284H215.262V116.053L215.436 115.879H215.667V115.648H215.841V115.416H216.073V115.243H216.304V115.011L216.478 114.837H216.709V114.606H216.883V114.201H217.114L217.288 114.027V113.796H217.52V113.564H217.751L217.925 113.39V112.985H218.156V112.58H218.33V112.117H218.562V111.712H218.735V111.307H218.967V110.728H219.14V110.091H219.372V109.454H219.603V108.876H219.777V108.413H220.009V108.007L220.182 107.834H220.414V107.602L220.587 107.429H220.819V106.965L220.993 106.792H221.224V106.56H221.456L221.629 106.387V106.155H221.861V105.75L222.034 105.576H222.266V105.113H222.44V104.708H222.671V104.534H222.903V104.129H223.076V103.666H223.308L223.481 103.493V103.087H223.713V102.682H223.887V102.277H224.118V101.814H224.292V101.409H224.523V100.83H224.755V100.367H224.928V99.9618H225.16V99.5566H225.334V99.1514H225.565V98.7463H225.739V98.3411H225.97V98.1096H226.202V97.7044H226.376V97.2992H226.607V96.8941H226.781V96.4889H227.012V96.0837H227.186V95.447H227.417V94.8103H227.591V94.2315H227.823V93.1896H228.054V92.9581H227.823V91.9162H227.591V91.511H227.417V91.1059H227.186L227.012 90.9322V90.5271H226.781V90.064H226.607V89.6588H226.376V89.2537H226.202V88.617H225.97V88.4433H225.739V88.0381H225.565V87.8066H225.334L225.16 87.633V87.4014H224.928L224.755 87.2278V86.9963H224.523V86.7647H224.292V86.5911H223.887V86.3596H223.481V86.1859H223.076V85.9544H222.671V85.7808H222.266V85.5492H222.034V85.3177H221.629L221.456 85.1441V84.9125H221.224V84.7389H220.819V84.5074H220.587L220.414 84.3337V84.1022H220.182L220.009 83.9285V83.697H219.777V83.4655L219.603 83.2918H219.372V83.0603H219.14L218.967 82.8867V82.6551H218.735L218.562 82.4815V82.25H218.33V82.0184L218.156 81.8448H217.925V81.6133L217.751 81.4396H217.52V81.2081H217.114V81.0344H216.883V80.8029H216.478L216.304 80.6293V80.3978H215.841V80.1662H215.262V79.9926H214.857V79.7611H214.626V79.5874H214.22V79.3559H213.989L213.815 79.1822V78.9507H213.584V78.7192H213.41V78.314H213.178L213.005 78.1404V77.7352H212.773V77.5037H212.542L212.368 77.33V77.0985H212.137V76.6933H211.963V76.4618H211.731V76.2881H211.326V76.0566L211.153 75.883H210.921V75.6515H210.69V75.4778H210.284V75.2463H210.111V75.0147H209.706V74.8411H209.474V74.6096H209.069V74.4359H208.837V74.2044L208.664 74.0308H208.432V73.7992H208.259V73.5677H208.027L207.853 73.3941V73.1625H207.622V72.9889H207.39V72.7574L207.217 72.5837H206.985V72.3522L206.812 72.1785H206.58V71.947H206.406V71.7155H206.175V71.5418H205.943V71.3103L205.77 71.1367H205.538V70.9051L205.364 70.7315H205.133V70.5H204.959V70.2684H204.554V70.0948H204.091V69.8633H203.686V69.6896H203.281V69.4581H202.644V69.2845H202.239V69.0529H201.834V68.8793H201.428V68.6478H201.023V68.4162H200.618V68.2426H200.213V68.0111H199.808V67.8374H199.403V67.6059H198.94V67.4322H198.534V67.2007H198.361V66.9692H198.129V66.7955H197.724V66.564H197.493L197.319 66.3904V66.1588H197.087L196.914 65.9852V65.7537H196.509V65.58H196.277V65.3485H195.872V65.117H195.64V64.9433H195.062V64.7118H194.656V64.5382H194.02V64.3066H193.383V64.133H192.804V63.9015H192.341V63.6699H191.762V63.4963H190.894V63.2648H190.084ZM138.569 120.626V120.799H137.932V121.031H137.296V121.204H136.717V121.436H136.312V121.61H135.443V121.841H134.228V122.015H131.739V122.246H130.929V122.478H130.292V122.651H129.887V122.883H129.481V123.057H129.076V123.288H128.44V123.462H128.034V123.693H127.224V123.925H126.414V124.098H125.546V124.33H124.735V124.504H119.989V124.735H118.368V124.909H117.731V125.14H117.326V125.314H116.69V125.546H116.284V125.777H115.879V125.951H115.243V126.182H114.259V126.356H112.58V126.587H111.77V126.761H111.133V126.993H110.728V127.166H110.323V127.398H109.917V127.629H109.512V127.803H109.049V128.034L108.876 128.208H108.47V128.44H108.065V128.613H107.66V128.845H107.023V129.076H106.618V129.25H105.75V129.481H105.171V129.655H104.534V129.887H103.898V130.06H103.319V130.292H102.914V130.465H102.451V130.697H102.046V130.929H101.64V131.102H101.235V131.334H100.598V131.507H100.193V131.739H99.7881V131.913H99.383V132.144H99.2093V132.376H98.9778V132.549H98.7463V132.954H98.5726V134.228H98.7463V134.633H98.9778V134.807H99.2093V135.038L99.383 135.212H99.6145V135.443H99.7881V135.675H100.02V135.848H100.425V136.08L100.598 136.254H101.062V136.485L101.235 136.659H101.64V136.89H101.872L102.046 137.064V137.296H102.451V137.527H102.682V137.701H103.087V137.932H103.319V138.106H103.724V138.337H104.361V138.511H104.766V138.743H105.345V138.974H106.213V139.148H106.792V139.379H107.66V139.553H108.065V139.784H108.47V139.958H108.876V140.19H109.281V140.363H109.512V140.595H109.917V140.826H110.323L110.496 141V141.231H110.959V141.405H111.364V141.637L111.538 141.81H111.943V142.042H112.175V142.273L112.348 142.447H112.812V142.679L112.985 142.852H113.39V143.084H113.622V143.257H114.027V143.489H114.432V143.663H114.664V143.894H115.069V144.126L115.243 144.299H115.648V144.531H115.879V144.704H116.111V144.936H116.516L116.69 145.11V145.341H116.921L117.095 145.515V145.746H117.326V145.978H117.731V146.151H118.137V146.383H118.542V146.557H118.947V146.788H121.667V146.557H122.246V146.383H122.709V146.151H123.114L123.288 145.978V145.746H123.52V145.515L123.693 145.341H124.098V145.11H124.33V144.936H124.562V144.704L124.735 144.531H124.967V144.299H125.372L125.546 144.126V143.894H125.777V143.663H126.009V143.257L126.182 143.084H126.414V142.679H126.587V142.273H126.819V141.81H126.993V141.231H127.224V140.826H127.398V140.363H127.629V139.958H127.861L128.034 139.784V139.379H128.266V138.974H128.44V138.511H128.671V138.106H128.845V137.701H129.076V137.296H129.308V136.659H129.481V136.254H129.713V135.848H129.887V135.443H130.118V135.038H130.292V134.633H130.523V134.401H130.697V133.996H130.929V133.591H131.16V133.36H131.334V132.954H131.565L131.739 132.781V132.549H131.97L132.144 132.376V132.144H132.376V131.913H132.781V131.739H133.417V131.507H133.996V131.334H134.864V131.102H135.443V130.929H136.08V130.697H136.485V130.465H136.89V130.292H137.122V130.06L137.296 129.887H137.759V129.655L137.932 129.481H138.164V129.076H138.337V128.845H138.569V128.613H138.743V128.208H138.974V127.803H139.148V127.398H139.379V126.993H139.611V126.356H139.784V125.951H140.016V125.546H140.19V125.14H140.421V124.504H140.595V124.098H140.826V123.462H141.058V122.015H140.826V121.61H140.595V121.204L140.421 121.031H140.016V120.799H139.611V120.626H138.569Z" fill="black" fill-opacity="0.05"/>
</svg>
